<svg version="1.1" viewBox="0.0 0.0 653.0 404.0" fill="none" stroke="none" stroke-linecap="square" stroke-miterlimit="10" width="653" height="404" xmlns:xlink="http://www.w3.org/1999/xlink" xmlns="http://www.w3.org/2000/svg"><path fill="#ffffff" d="M0 0L653.0 0L653.0 404.0L0 404.0L0 0Z" fill-rule="nonzero"/><path stroke="#cccccc" stroke-width="1.0" stroke-linecap="butt" d="M100.5 92.5L100.5 331.5" fill-rule="nonzero"/><path stroke="#cccccc" stroke-width="1.0" stroke-linecap="butt" d="M229.5 92.5L229.5 331.5" fill-rule="nonzero"/><path stroke="#cccccc" stroke-width="1.0" stroke-linecap="butt" d="M358.5 92.5L358.5 331.5" fill-rule="nonzero"/><path stroke="#cccccc" stroke-width="1.0" stroke-linecap="butt" d="M486.5 92.5L486.5 331.5" fill-rule="nonzero"/><path stroke="#cccccc" stroke-width="1.0" stroke-linecap="butt" d="M615.5 92.5L615.5 331.5" fill-rule="nonzero"/><path stroke="#333333" stroke-width="1.0" stroke-linecap="butt" d="M79.5 331.5L632.5 331.5" fill-rule="nonzero"/><path stroke="#cccccc" stroke-width="1.0" stroke-linecap="butt" d="M79.5 271.5L632.5 271.5" fill-rule="nonzero"/><path stroke="#cccccc" stroke-width="1.0" stroke-linecap="butt" d="M79.5 211.5L632.5 211.5" fill-rule="nonzero"/><path stroke="#cccccc" stroke-width="1.0" stroke-linecap="butt" d="M79.5 152.5L632.5 152.5" fill-rule="nonzero"/><path stroke="#cccccc" stroke-width="1.0" stroke-linecap="butt" d="M79.5 92.5L632.5 92.5" fill-rule="nonzero"/><clipPath id="id_0"><path d="M79.2 92.13333L632.8 92.13333L632.8 331.8L79.2 331.8L79.2 92.13333Z" clip-rule="nonzero"/></clipPath><path stroke="#4285f4" stroke-width="2.0" stroke-linecap="butt" stroke-opacity="0.4" clip-path="url(#id_0)" d="M0 239.5742L632.8 97.582275" fill-rule="nonzero"/><path fill="#4285f4" clip-path="url(#id_0)" d="M137.34048 208.00523C137.34048 210.49051 135.32576 212.50523 132.84048 212.50523C130.3552 212.50523 128.34048 210.49051 128.34048 208.00523C128.34048 205.51996 130.3552 203.50523 132.84048 203.50523C135.32576 203.50523 137.34048 205.51996 137.34048 208.00523Z" fill-rule="nonzero"/><path fill="#4285f4" clip-path="url(#id_0)" d="M90.52734 227.77802C90.52734 230.26329 88.51263 232.27802 86.02734 232.27802C83.54206 232.27802 81.52734 230.26329 81.52734 227.77802C81.52734 225.29272 83.54206 223.27802 86.02734 223.27802C88.51263 223.27802 90.52734 225.29272 90.52734 227.77802Z" fill-rule="nonzero"/><path fill="#4285f4" clip-path="url(#id_0)" d="M232.04572 174.22823C232.04572 176.7135 230.031 178.72823 227.54572 178.72823C225.06044 178.72823 223.04572 176.7135 223.04572 174.22823C223.04572 171.74295 225.06044 169.72823 227.54572 169.72823C230.031 169.72823 232.04572 171.74295 232.04572 174.22823Z" fill-rule="nonzero"/><path fill="#4285f4" clip-path="url(#id_0)" d="M377.31143 165.82585C377.31143 168.31114 375.2967 170.32585 372.81143 170.32585C370.32614 170.32585 368.31143 168.31114 368.31143 165.82585C368.31143 163.34058 370.32614 161.32585 372.81143 161.32585C375.2967 161.32585 377.31143 163.34058 377.31143 165.82585Z" fill-rule="nonzero"/><path fill="#4285f4" clip-path="url(#id_0)" d="M630.47266 97.75052C630.47266 100.2358 628.45795 102.25052 625.97266 102.25052C623.48737 102.25052 621.47266 100.2358 621.47266 97.75052C621.47266 95.265236 623.48737 93.25052 625.97266 93.25052C628.45795 93.25052 630.47266 95.265236 630.47266 97.75052Z" fill-rule="nonzero"/><path fill="#000000" d="M326.4375 380.8L326.4375 372.20624L330.25 372.20624Q331.40625 372.20624 332.0 372.4406Q332.59375 372.675 332.95312 373.26874Q333.3125 373.84686 333.3125 374.55Q333.3125 375.47186 332.71875 376.09686Q332.125 376.72186 330.89062 376.89374Q331.34375 377.1125 331.57812 377.3156Q332.07812 377.76874 332.51562 378.45624L334.01562 380.8L332.57812 380.8L331.45312 379.01874Q330.95312 378.2375 330.625 377.83124Q330.3125 377.425 330.04688 377.26874Q329.79688 377.09686 329.53125 377.01874Q329.34375 376.9875 328.90625 376.9875L327.57812 376.9875L327.57812 380.8L326.4375 380.8ZM327.57812 376.0031L330.03125 376.0031Q330.79688 376.0031 331.23438 375.84686Q331.6875 375.675 331.90625 375.33124Q332.14062 374.97186 332.14062 374.55Q332.14062 373.9406 331.6875 373.55Q331.25 373.15936 330.29688 373.15936L327.57812 373.15936L327.57812 376.0031ZM337.59375 379.8625L337.75 380.78436Q337.29688 380.8781 336.95312 380.8781Q336.375 380.8781 336.0625 380.70624Q335.75 380.51874 335.60938 380.22186Q335.48438 379.925 335.48438 378.97186L335.48438 375.39374L334.71875 375.39374L334.71875 374.58124L335.48438 374.58124L335.48438 373.03436L336.53125 372.40936L336.53125 374.58124L337.59375 374.58124L337.59375 375.39374L336.53125 375.39374L336.53125 379.03436Q336.53125 379.4875 336.57812 379.6125Q336.64062 379.7375 336.76562 379.8156Q336.89062 379.89374 337.125 379.89374Q337.3125 379.89374 337.59375 379.8625ZM342.35938 380.03436Q341.76562 380.53436 341.21875 380.7375Q340.6875 380.9406 340.0625 380.9406Q339.03125 380.9406 338.48438 380.4406Q337.9375 379.9406 337.9375 379.15936Q337.9375 378.70624 338.14062 378.33124Q338.34375 377.9406 338.6875 377.72186Q339.03125 377.4875 339.45312 377.3781Q339.75 377.28436 340.39062 377.20624Q341.65625 377.0656 342.26562 376.84686Q342.26562 376.6281 342.26562 376.58124Q342.26562 375.925 341.96875 375.65936Q341.5625 375.3156 340.76562 375.3156Q340.03125 375.3156 339.67188 375.58124Q339.3125 375.83124 339.14062 376.4875L338.10938 376.34686Q338.25 375.6906 338.57812 375.28436Q338.90625 374.8781 339.51562 374.65936Q340.125 374.4406 340.92188 374.4406Q341.71875 374.4406 342.21875 374.6281Q342.71875 374.8156 342.95312 375.09686Q343.1875 375.3781 343.28125 375.8156Q343.32812 376.08124 343.32812 376.78436L343.32812 378.1906Q343.32812 379.65936 343.39062 380.05Q343.46875 380.4406 343.67188 380.8L342.5625 380.8Q342.40625 380.47186 342.35938 380.03436ZM342.26562 377.675Q341.6875 377.90936 340.54688 378.08124Q339.89062 378.175 339.625 378.3Q339.35938 378.40936 339.20312 378.6281Q339.0625 378.84686 339.0625 379.1281Q339.0625 379.55 339.375 379.83124Q339.70312 380.1125 340.3125 380.1125Q340.92188 380.1125 341.39062 379.84686Q341.875 379.58124 342.09375 379.1125Q342.26562 378.7531 342.26562 378.0656L342.26562 377.675ZM345.29688 380.8L345.29688 374.58124L346.23438 374.58124L346.23438 375.45624Q346.92188 374.4406 348.21875 374.4406Q348.78125 374.4406 349.25 374.64374Q349.73438 374.84686 349.96875 375.175Q350.20312 375.5031 350.29688 375.9406Q350.34375 376.2375 350.34375 376.97186L350.34375 380.8L349.29688 380.8L349.29688 377.01874Q349.29688 376.3625 349.17188 376.05Q349.04688 375.7375 348.73438 375.55Q348.42188 375.34686 348.0 375.34686Q347.32812 375.34686 346.82812 375.78436Q346.34375 376.20624 346.34375 377.39374L346.34375 380.8L345.29688 380.8ZM354.3125 383.33124Q353.4375 382.22186 352.82812 380.7531Q352.23438 379.26874 352.23438 377.6906Q352.23438 376.3 352.67188 375.01874Q353.20312 373.53436 354.3125 372.0656L355.0625 372.0656Q354.35938 373.28436 354.125 373.8Q353.76562 374.6125 353.5625 375.4875Q353.3125 376.58124 353.3125 377.6906Q353.3125 380.51874 355.0625 383.33124L354.3125 383.33124ZM358.59375 379.8625L358.75 380.78436Q358.29688 380.8781 357.95312 380.8781Q357.375 380.8781 357.0625 380.70624Q356.75 380.51874 356.60938 380.22186Q356.48438 379.925 356.48438 378.97186L356.48438 375.39374L355.71875 375.39374L355.71875 374.58124L356.48438 374.58124L356.48438 373.03436L357.53125 372.40936L357.53125 374.58124L358.59375 374.58124L358.59375 375.39374L357.53125 375.39374L357.53125 379.03436Q357.53125 379.4875 357.57812 379.6125Q357.64062 379.7375 357.76562 379.8156Q357.89062 379.89374 358.125 379.89374Q358.3125 379.89374 358.59375 379.8625ZM359.29688 380.8L359.29688 372.20624L360.34375 372.20624L360.34375 375.28436Q361.07812 374.4406 362.20312 374.4406Q362.90625 374.4406 363.40625 374.72186Q363.92188 374.9875 364.14062 375.47186Q364.35938 375.9406 364.35938 376.8625L364.35938 380.8L363.3125 380.8L363.3125 376.8625Q363.3125 376.0656 362.96875 375.70624Q362.625 375.34686 362.0 375.34686Q361.53125 375.34686 361.10938 375.59686Q360.70312 375.83124 360.51562 376.2531Q360.34375 376.65936 360.34375 377.39374L360.34375 380.8L359.29688 380.8ZM370.54688 378.8L371.64062 378.925Q371.39062 379.8781 370.6875 380.40936Q369.98438 380.9406 368.90625 380.9406Q367.54688 380.9406 366.73438 380.09686Q365.9375 379.2531 365.9375 377.7375Q365.9375 376.175 366.75 375.3156Q367.5625 374.4406 368.84375 374.4406Q370.09375 374.4406 370.875 375.28436Q371.67188 376.1281 371.67188 377.675Q371.67188 377.76874 371.67188 377.95624L367.03125 377.95624Q367.09375 378.9875 367.60938 379.53436Q368.125 380.0656 368.90625 380.0656Q369.48438 380.0656 369.89062 379.76874Q370.3125 379.45624 370.54688 378.8ZM367.09375 377.09686L370.5625 377.09686Q370.5 376.3 370.17188 375.90936Q369.65625 375.3 368.85938 375.3Q368.125 375.3 367.625 375.78436Q367.14062 376.26874 367.09375 377.09686ZM375.59375 379.8625L375.75 380.78436Q375.29688 380.8781 374.95312 380.8781Q374.375 380.8781 374.0625 380.70624Q373.75 380.51874 373.60938 380.22186Q373.48438 379.925 373.48438 378.97186L373.48438 375.39374L372.71875 375.39374L372.71875 374.58124L373.48438 374.58124L373.48438 373.03436L374.53125 372.40936L374.53125 374.58124L375.59375 374.58124L375.59375 375.39374L374.53125 375.39374L374.53125 379.03436Q374.53125 379.4875 374.57812 379.6125Q374.64062 379.7375 374.76562 379.8156Q374.89062 379.89374 375.125 379.89374Q375.3125 379.89374 375.59375 379.8625ZM380.35938 380.03436Q379.76562 380.53436 379.21875 380.7375Q378.6875 380.9406 378.0625 380.9406Q377.03125 380.9406 376.48438 380.4406Q375.9375 379.9406 375.9375 379.15936Q375.9375 378.70624 376.14062 378.33124Q376.34375 377.9406 376.6875 377.72186Q377.03125 377.4875 377.45312 377.3781Q377.75 377.28436 378.39062 377.20624Q379.65625 377.0656 380.26562 376.84686Q380.26562 376.6281 380.26562 376.58124Q380.26562 375.925 379.96875 375.65936Q379.5625 375.3156 378.76562 375.3156Q378.03125 375.3156 377.67188 375.58124Q377.3125 375.83124 377.14062 376.4875L376.10938 376.34686Q376.25 375.6906 376.57812 375.28436Q376.90625 374.8781 377.51562 374.65936Q378.125 374.4406 378.92188 374.4406Q379.71875 374.4406 380.21875 374.6281Q380.71875 374.8156 380.95312 375.09686Q381.1875 375.3781 381.28125 375.8156Q381.32812 376.08124 381.32812 376.78436L381.32812 378.1906Q381.32812 379.65936 381.39062 380.05Q381.46875 380.4406 381.67188 380.8L380.5625 380.8Q380.40625 380.47186 380.35938 380.03436ZM380.26562 377.675Q379.6875 377.90936 378.54688 378.08124Q377.89062 378.175 377.625 378.3Q377.35938 378.40936 377.20312 378.6281Q377.0625 378.84686 377.0625 379.1281Q377.0625 379.55 377.375 379.83124Q377.70312 380.1125 378.3125 380.1125Q378.92188 380.1125 379.39062 379.84686Q379.875 379.58124 380.09375 379.1125Q380.26562 378.7531 380.26562 378.0656L380.26562 377.675ZM383.98438 383.33124L383.23438 383.33124Q384.98438 380.51874 384.98438 377.6906Q384.98438 376.59686 384.73438 375.5031Q384.53125 374.6281 384.17188 373.8156Q383.9375 373.3 383.23438 372.0656L383.98438 372.0656Q385.07812 373.53436 385.60938 375.01874Q386.0625 376.3 386.0625 377.6906Q386.0625 379.26874 385.45312 380.7531Q384.84375 382.22186 383.98438 383.33124Z" fill-rule="nonzero"/><path fill="#000000" d="M31.199987 224.45103L24.981237 226.81041L24.981237 225.70103L28.699987 224.35728Q29.309362 224.15416 29.949987 223.96666Q29.465612 223.82603 28.778112 223.57603L24.981237 222.18541L24.981237 221.10728L31.199987 223.46666L31.199987 224.45103ZM27.153112 220.56041L27.153112 221.65416L22.465612 219.57603L22.465612 218.73228L27.153112 216.65416L27.153112 217.71666L23.653112 219.15416L27.153112 220.56041ZM30.184362 210.91978L31.199987 210.91978L31.199987 216.60728Q30.824987 216.60728 30.465612 216.48228Q29.887487 216.26353 29.324987 215.79478Q28.762487 215.31041 28.028112 214.40416Q26.871862 212.99791 26.199987 212.51353Q25.528112 212.01353 24.934362 212.01353Q24.309362 212.01353 23.887487 212.46666Q23.449987 212.91978 23.449987 213.63853Q23.449987 214.40416 23.903112 214.85728Q24.356237 215.31041 25.168737 215.32603L25.059362 216.40416Q23.840612 216.29478 23.215612 215.57603Q22.574987 214.84166 22.574987 213.60728Q22.574987 212.37291 23.262487 211.65416Q23.949987 210.93541 24.965612 210.93541Q25.481237 210.93541 25.981237 211.15416Q26.465612 211.35728 27.028112 211.85728Q27.574987 212.34166 28.528112 213.46666Q29.324987 214.41978 29.621862 214.70103Q29.903112 214.96666 30.184362 215.13853L30.184362 210.91978Z" fill-rule="nonzero"/><path fill="#000000" d="M66.7 331.5656Q66.7 330.03436 67.0125 329.1125Q67.325 328.175 67.93437 327.675Q68.55937 327.175 69.49687 327.175Q70.18437 327.175 70.7 327.45624Q71.23125 327.7375 71.575 328.26874Q71.91875 328.78436 72.10625 329.53436Q72.29375 330.28436 72.29375 331.5656Q72.29375 333.08124 71.98125 334.0031Q71.68437 334.925 71.05937 335.4406Q70.45 335.9406 69.49687 335.9406Q68.2625 335.9406 67.54375 335.05Q66.7 333.9875 66.7 331.5656ZM67.77812 331.5656Q67.77812 333.675 68.27812 334.3781Q68.77812 335.08124 69.49687 335.08124Q70.23125 335.08124 70.71562 334.3781Q71.21562 333.675 71.21562 331.5656Q71.21562 329.4406 70.71562 328.7531Q70.23125 328.05 69.48125 328.05Q68.7625 328.05 68.325 328.65936Q67.77812 329.4406 67.77812 331.5656Z" fill-rule="nonzero"/><path fill="#000000" d="M63.66875 275.88333L62.621876 275.88333L62.621876 269.16458Q62.23125 269.52396 61.60625 269.89896Q60.996876 270.25833 60.5125 270.4302L60.5125 269.41458Q61.3875 268.9927 62.04375 268.41458Q62.715626 267.82083 62.996876 267.25833L63.66875 267.25833L63.66875 275.88333ZM66.7 271.64896Q66.7 270.1177 67.0125 269.19583Q67.325 268.25833 67.93437 267.75833Q68.55937 267.25833 69.49687 267.25833Q70.18437 267.25833 70.7 267.53958Q71.23125 267.82083 71.575 268.35208Q71.91875 268.8677 72.10625 269.6177Q72.29375 270.3677 72.29375 271.64896Q72.29375 273.16458 71.98125 274.08646Q71.68437 275.00833 71.05937 275.52396Q70.45 276.02396 69.49687 276.02396Q68.2625 276.02396 67.54375 275.13333Q66.7 274.07083 66.7 271.64896ZM67.77812 271.64896Q67.77812 273.75833 68.27812 274.46146Q68.77812 275.16458 69.49687 275.16458Q70.23125 275.16458 70.71562 274.46146Q71.21562 273.75833 71.21562 271.64896Q71.21562 269.52396 70.71562 268.83646Q70.23125 268.13333 69.48125 268.13333Q68.7625 268.13333 68.325 268.7427Q67.77812 269.52396 67.77812 271.64896Z" fill-rule="nonzero"/><path fill="#000000" d="M65.24687 214.95103L65.24687 215.96666L59.559376 215.96666Q59.559376 215.59166 59.684376 215.23228Q59.903126 214.65416 60.371876 214.09166Q60.85625 213.52916 61.7625 212.79478Q63.16875 211.63853 63.653126 210.96666Q64.15312 210.29478 64.15312 209.70103Q64.15312 209.07603 63.7 208.65416Q63.246876 208.21666 62.528126 208.21666Q61.7625 208.21666 61.309376 208.66978Q60.85625 209.12291 60.840626 209.93541L59.7625 209.82603Q59.871876 208.60728 60.590626 207.98228Q61.325 207.34166 62.559376 207.34166Q63.79375 207.34166 64.5125 208.02916Q65.23125 208.71666 65.23125 209.73228Q65.23125 210.24791 65.0125 210.74791Q64.80937 211.23228 64.30937 211.79478Q63.825 212.34166 62.7 213.29478Q61.746876 214.09166 61.465626 214.38853Q61.2 214.66978 61.028126 214.95103L65.24687 214.95103ZM66.7 211.73228Q66.7 210.20103 67.0125 209.27916Q67.325 208.34166 67.93437 207.84166Q68.55937 207.34166 69.49687 207.34166Q70.18437 207.34166 70.7 207.62291Q71.23125 207.90416 71.575 208.43541Q71.91875 208.95103 72.10625 209.70103Q72.29375 210.45103 72.29375 211.73228Q72.29375 213.24791 71.98125 214.16978Q71.68437 215.09166 71.05937 215.60728Q70.45 216.10728 69.49687 216.10728Q68.2625 216.10728 67.54375 215.21666Q66.7 214.15416 66.7 211.73228ZM67.77812 211.73228Q67.77812 213.84166 68.27812 214.54478Q68.77812 215.24791 69.49687 215.24791Q70.23125 215.24791 70.71562 214.54478Q71.21562 213.84166 71.21562 211.73228Q71.21562 209.60728 70.71562 208.91978Q70.23125 208.21666 69.48125 208.21666Q68.7625 208.21666 68.325 208.82603Q67.77812 209.60728 67.77812 211.73228Z" fill-rule="nonzero"/><path fill="#000000" d="M59.7 153.78438L60.7625 153.64375Q60.934376 154.53438 61.371876 154.94063Q61.809376 155.33125 62.434376 155.33125Q63.184376 155.33125 63.7 154.81563Q64.21562 154.3 64.21562 153.53438Q64.21562 152.81563 63.73125 152.34688Q63.2625 151.8625 62.528126 151.8625Q62.23125 151.8625 61.778126 151.9875L61.903126 151.05Q62.0125 151.06563 62.075 151.06563Q62.746876 151.06563 63.278126 150.72188Q63.825 150.3625 63.825 149.62813Q63.825 149.05 63.434376 148.675Q63.04375 148.28438 62.41875 148.28438Q61.809376 148.28438 61.3875 148.675Q60.98125 149.06563 60.871876 149.83125L59.809376 149.64375Q59.996876 148.59688 60.684376 148.01875Q61.371876 147.425 62.3875 147.425Q63.090626 147.425 63.684376 147.7375Q64.27812 148.03438 64.59062 148.55Q64.90312 149.06563 64.90312 149.65938Q64.90312 150.20625 64.60625 150.675Q64.30937 151.12813 63.73125 151.39375Q64.48125 151.56563 64.90312 152.12813Q65.325 152.675 65.325 153.51875Q65.325 154.64375 64.49687 155.425Q63.684376 156.20625 62.434376 156.20625Q61.309376 156.20625 60.559376 155.53438Q59.809376 154.84688 59.7 153.78438ZM66.7 151.81563Q66.7 150.28438 67.0125 149.3625Q67.325 148.425 67.93437 147.925Q68.55937 147.425 69.49687 147.425Q70.18437 147.425 70.7 147.70625Q71.23125 147.9875 71.575 148.51875Q71.91875 149.03438 72.10625 149.78438Q72.29375 150.53438 72.29375 151.81563Q72.29375 153.33125 71.98125 154.25313Q71.68437 155.175 71.05937 155.69063Q70.45 156.19063 69.49687 156.19063Q68.2625 156.19063 67.54375 155.3Q66.7 154.2375 66.7 151.81563ZM67.77812 151.81563Q67.77812 153.925 68.27812 154.62813Q68.77812 155.33125 69.49687 155.33125Q70.23125 155.33125 70.71562 154.62813Q71.21562 153.925 71.21562 151.81563Q71.21562 149.69063 70.71562 149.00313Q70.23125 148.3 69.48125 148.3Q68.7625 148.3 68.325 148.90938Q67.77812 149.69063 67.77812 151.81563Z" fill-rule="nonzero"/><path fill="#000000" d="M63.075 96.13333L63.075 94.07083L59.35625 94.07083L59.35625 93.10208L63.278126 87.53958L64.1375 87.53958L64.1375 93.10208L65.29375 93.10208L65.29375 94.07083L64.1375 94.07083L64.1375 96.13333L63.075 96.13333ZM63.075 93.10208L63.075 89.24271L60.3875 93.10208L63.075 93.10208ZM66.7 91.89896Q66.7 90.36771 67.0125 89.44583Q67.325 88.50833 67.93437 88.00833Q68.55937 87.50833 69.49687 87.50833Q70.18437 87.50833 70.7 87.78958Q71.23125 88.07083 71.575 88.60208Q71.91875 89.11771 72.10625 89.86771Q72.29375 90.61771 72.29375 91.89896Q72.29375 93.41458 71.98125 94.33646Q71.68437 95.25833 71.05937 95.77396Q70.45 96.27396 69.49687 96.27396Q68.2625 96.27396 67.54375 95.38333Q66.7 94.32083 66.7 91.89896ZM67.77812 91.89896Q67.77812 94.00833 68.27812 94.71146Q68.77812 95.41458 69.49687 95.41458Q70.23125 95.41458 70.71562 94.71146Q71.21562 94.00833 71.21562 91.89896Q71.21562 89.77396 70.71562 89.08646Q70.23125 88.38333 69.48125 88.38333Q68.7625 88.38333 68.325 88.99271Q67.77812 89.77396 67.77812 91.89896Z" fill-rule="nonzero"/><path fill="#000000" d="M98.04779 347.78436L98.04779 348.8L92.36029 348.8Q92.36029 348.425 92.48529 348.0656Q92.70404 347.4875 93.17279 346.925Q93.657166 346.3625 94.563416 345.6281Q95.969666 344.47186 96.45404 343.8Q96.95404 343.1281 96.95404 342.53436Q96.95404 341.90936 96.500916 341.4875Q96.04779 341.05 95.32904 341.05Q94.563416 341.05 94.11029 341.5031Q93.657166 341.95624 93.64154 342.76874L92.563416 342.65936Q92.67279 341.4406 93.39154 340.8156Q94.125916 340.175 95.36029 340.175Q96.594666 340.175 97.313416 340.8625Q98.032166 341.55 98.032166 342.5656Q98.032166 343.08124 97.813416 343.58124Q97.61029 344.0656 97.11029 344.6281Q96.625916 345.175 95.500916 346.1281Q94.54779 346.925 94.26654 347.22186Q94.000916 347.5031 93.82904 347.78436L98.04779 347.78436ZM100.094666 348.8L100.094666 347.59686L101.29779 347.59686L101.29779 348.8L100.094666 348.8ZM102.500916 344.5656Q102.500916 343.03436 102.813416 342.1125Q103.125916 341.175 103.73529 340.675Q104.36029 340.175 105.29779 340.175Q105.98529 340.175 106.500916 340.45624Q107.032166 340.7375 107.375916 341.26874Q107.719666 341.78436 107.907166 342.53436Q108.094666 343.28436 108.094666 344.5656Q108.094666 346.08124 107.782166 347.0031Q107.48529 347.925 106.86029 348.4406Q106.250916 348.9406 105.29779 348.9406Q104.063416 348.9406 103.344666 348.05Q102.500916 346.9875 102.500916 344.5656ZM103.57904 344.5656Q103.57904 346.675 104.07904 347.3781Q104.57904 348.08124 105.29779 348.08124Q106.032166 348.08124 106.51654 347.3781Q107.01654 346.675 107.01654 344.5656Q107.01654 342.4406 106.51654 341.7531Q106.032166 341.05 105.282166 341.05Q104.563416 341.05 104.125916 341.65936Q103.57904 342.4406 103.57904 344.5656Z" fill-rule="nonzero"/><path fill="#000000" d="M226.82333 347.78436L226.82333 348.8L221.13583 348.8Q221.13583 348.425 221.26083 348.0656Q221.47958 347.4875 221.94833 346.925Q222.43271 346.3625 223.33896 345.6281Q224.74521 344.47186 225.22958 343.8Q225.72958 343.1281 225.72958 342.53436Q225.72958 341.90936 225.27646 341.4875Q224.82333 341.05 224.10458 341.05Q223.33896 341.05 222.88583 341.5031Q222.43271 341.95624 222.41708 342.76874L221.33896 342.65936Q221.44833 341.4406 222.16708 340.8156Q222.90146 340.175 224.13583 340.175Q225.37021 340.175 226.08896 340.8625Q226.80771 341.55 226.80771 342.5656Q226.80771 343.08124 226.58896 343.58124Q226.38583 344.0656 225.88583 344.6281Q225.40146 345.175 224.27646 346.1281Q223.32333 346.925 223.04208 347.22186Q222.77646 347.5031 222.60458 347.78436L226.82333 347.78436ZM228.87021 348.8L228.87021 347.59686L230.07333 347.59686L230.07333 348.8L228.87021 348.8ZM231.27646 346.55L232.38583 346.45624Q232.51083 347.26874 232.94833 347.675Q233.40146 348.08124 234.04208 348.08124Q234.79208 348.08124 235.32333 347.5031Q235.85458 346.925 235.85458 345.9875Q235.85458 345.08124 235.33896 344.5656Q234.83896 344.03436 234.01083 344.03436Q233.51083 344.03436 233.08896 344.26874Q232.68271 344.5031 232.44833 344.8625L231.46396 344.7375L232.29208 340.33124L236.57333 340.33124L236.57333 341.33124L233.13583 341.33124L232.68271 343.64374Q233.44833 343.09686 234.29208 343.09686Q235.41708 343.09686 236.18271 343.8781Q236.96396 344.65936 236.96396 345.89374Q236.96396 347.05 236.29208 347.90936Q235.46396 348.9406 234.04208 348.9406Q232.87021 348.9406 232.12021 348.28436Q231.38583 347.6281 231.27646 346.55Z" fill-rule="nonzero"/><path fill="#000000" d="M350.052 346.53436L351.1145 346.39374Q351.28638 347.28436 351.72388 347.6906Q352.16138 348.08124 352.78638 348.08124Q353.53638 348.08124 354.052 347.5656Q354.56763 347.05 354.56763 346.28436Q354.56763 345.5656 354.08325 345.09686Q353.6145 344.6125 352.88013 344.6125Q352.58325 344.6125 352.13013 344.7375L352.25513 343.8Q352.3645 343.8156 352.427 343.8156Q353.09888 343.8156 353.63013 343.47186Q354.177 343.1125 354.177 342.3781Q354.177 341.8 353.78638 341.425Q353.39575 341.03436 352.77075 341.03436Q352.16138 341.03436 351.7395 341.425Q351.33325 341.8156 351.22388 342.58124L350.16138 342.39374Q350.34888 341.34686 351.03638 340.76874Q351.72388 340.175 352.7395 340.175Q353.44263 340.175 354.03638 340.4875Q354.63013 340.78436 354.94263 341.3Q355.25513 341.8156 355.25513 342.40936Q355.25513 342.95624 354.95825 343.425Q354.66138 343.8781 354.08325 344.14374Q354.83325 344.3156 355.25513 344.8781Q355.677 345.425 355.677 346.26874Q355.677 347.39374 354.84888 348.175Q354.03638 348.95624 352.78638 348.95624Q351.66138 348.95624 350.91138 348.28436Q350.16138 347.59686 350.052 346.53436ZM357.64575 348.8L357.64575 347.59686L358.84888 347.59686L358.84888 348.8L357.64575 348.8ZM360.052 344.5656Q360.052 343.03436 360.3645 342.1125Q360.677 341.175 361.28638 340.675Q361.91138 340.175 362.84888 340.175Q363.53638 340.175 364.052 340.45624Q364.58325 340.7375 364.927 341.26874Q365.27075 341.78436 365.45825 342.53436Q365.64575 343.28436 365.64575 344.5656Q365.64575 346.08124 365.33325 347.0031Q365.03638 347.925 364.41138 348.4406Q363.802 348.9406 362.84888 348.9406Q361.6145 348.9406 360.89575 348.05Q360.052 346.9875 360.052 344.5656ZM361.13013 344.5656Q361.13013 346.675 361.63013 347.3781Q362.13013 348.08124 362.84888 348.08124Q363.58325 348.08124 364.06763 347.3781Q364.56763 346.675 364.56763 344.5656Q364.56763 342.4406 364.06763 341.7531Q363.58325 341.05 362.83325 341.05Q362.1145 341.05 361.677 341.65936Q361.13013 342.4406 361.13013 344.5656Z" fill-rule="nonzero"/><path fill="#000000" d="M478.82755 346.53436L479.89005 346.39374Q480.06192 347.28436 480.49942 347.6906Q480.93692 348.08124 481.56192 348.08124Q482.31192 348.08124 482.82755 347.5656Q483.34317 347.05 483.34317 346.28436Q483.34317 345.5656 482.8588 345.09686Q482.39005 344.6125 481.65567 344.6125Q481.3588 344.6125 480.90567 344.7375L481.03067 343.8Q481.14005 343.8156 481.20255 343.8156Q481.87442 343.8156 482.40567 343.47186Q482.95255 343.1125 482.95255 342.3781Q482.95255 341.8 482.56192 341.425Q482.1713 341.03436 481.5463 341.03436Q480.93692 341.03436 480.51505 341.425Q480.1088 341.8156 479.99942 342.58124L478.93692 342.39374Q479.12442 341.34686 479.81192 340.76874Q480.49942 340.175 481.51505 340.175Q482.21817 340.175 482.81192 340.4875Q483.40567 340.78436 483.71817 341.3Q484.03067 341.8156 484.03067 342.40936Q484.03067 342.95624 483.7338 343.425Q483.43692 343.8781 482.8588 344.14374Q483.6088 344.3156 484.03067 344.8781Q484.45255 345.425 484.45255 346.26874Q484.45255 347.39374 483.62442 348.175Q482.81192 348.95624 481.56192 348.95624Q480.43692 348.95624 479.68692 348.28436Q478.93692 347.59686 478.82755 346.53436ZM486.4213 348.8L486.4213 347.59686L487.62442 347.59686L487.62442 348.8L486.4213 348.8ZM488.82755 346.55L489.93692 346.45624Q490.06192 347.26874 490.49942 347.675Q490.95255 348.08124 491.59317 348.08124Q492.34317 348.08124 492.87442 347.5031Q493.40567 346.925 493.40567 345.9875Q493.40567 345.08124 492.89005 344.5656Q492.39005 344.03436 491.56192 344.03436Q491.06192 344.03436 490.64005 344.26874Q490.2338 344.5031 489.99942 344.8625L489.01505 344.7375L489.84317 340.33124L494.12442 340.33124L494.12442 341.33124L490.68692 341.33124L490.2338 343.64374Q490.99942 343.09686 491.84317 343.09686Q492.96817 343.09686 493.7338 343.8781Q494.51505 344.65936 494.51505 345.89374Q494.51505 347.05 493.84317 347.90936Q493.01505 348.9406 491.59317 348.9406Q490.4213 348.9406 489.6713 348.28436Q488.93692 347.6281 488.82755 346.55Z" fill-rule="nonzero"/><path fill="#000000" d="M610.9781 348.8L610.9781 346.7375L607.25934 346.7375L607.25934 345.76874L611.1812 340.20624L612.0406 340.20624L612.0406 345.76874L613.19684 345.76874L613.19684 346.7375L612.0406 346.7375L612.0406 348.8L610.9781 348.8ZM610.9781 345.76874L610.9781 341.90936L608.2906 345.76874L610.9781 345.76874ZM615.19684 348.8L615.19684 347.59686L616.39996 347.59686L616.39996 348.8L615.19684 348.8ZM617.6031 344.5656Q617.6031 343.03436 617.9156 342.1125Q618.2281 341.175 618.83746 340.675Q619.46246 340.175 620.39996 340.175Q621.08746 340.175 621.6031 340.45624Q622.13434 340.7375 622.4781 341.26874Q622.82184 341.78436 623.00934 342.53436Q623.19684 343.28436 623.19684 344.5656Q623.19684 346.08124 622.88434 347.0031Q622.58746 347.925 621.96246 348.4406Q621.3531 348.9406 620.39996 348.9406Q619.1656 348.9406 618.44684 348.05Q617.6031 346.9875 617.6031 344.5656ZM618.6812 344.5656Q618.6812 346.675 619.1812 347.3781Q619.6812 348.08124 620.39996 348.08124Q621.13434 348.08124 621.6187 347.3781Q622.1187 346.675 622.1187 344.5656Q622.1187 342.4406 621.6187 341.7531Q621.13434 341.05 620.38434 341.05Q619.6656 341.05 619.2281 341.65936Q618.6812 342.4406 618.6812 344.5656Z" fill-rule="nonzero"/><path fill="#4285f4" d="M243.5 64.666664C243.5 67.98038 240.8137 70.666664 237.5 70.666664C234.1863 70.666664 231.5 67.98038 231.5 64.666664C231.5 61.35296 234.1863 58.666668 237.5 58.666668C240.8137 58.666668 243.5 61.35296 243.5 64.666664Z" fill-rule="nonzero"/><path stroke="#4285f4" stroke-width="4.0" stroke-linecap="butt" stroke-opacity="0.4" d="M259.5 64.666664L271.5 64.666664" fill-rule="nonzero"/><path fill="#1a1a1a" d="M280.15625 66.68229L281.17188 66.58854Q281.29688 67.30729 281.65625 67.635414Q282.03125 67.947914 282.59375 67.947914Q283.07812 67.947914 283.4375 67.729164Q283.8125 67.49479 284.04688 67.135414Q284.28125 66.760414 284.4375 66.135414Q284.59375 65.49479 284.59375 64.83854Q284.59375 64.760414 284.59375 64.61979Q284.28125 65.11979 283.73438 65.447914Q283.1875 65.760414 282.54688 65.760414Q281.46875 65.760414 280.73438 64.99479Q280.0 64.21354 280.0 62.947914Q280.0 61.635414 280.76562 60.83854Q281.54688 60.041664 282.70312 60.041664Q283.53125 60.041664 284.21875 60.49479Q284.92188 60.947914 285.28125 61.791664Q285.64062 62.61979 285.64062 64.197914Q285.64062 65.83854 285.28125 66.822914Q284.9375 67.791664 284.21875 68.30729Q283.51562 68.80729 282.57812 68.80729Q281.5625 68.80729 280.92188 68.260414Q280.28125 67.697914 280.15625 66.68229ZM284.46875 62.885414Q284.46875 61.979164 283.98438 61.447914Q283.51562 60.916664 282.82812 60.916664Q282.125 60.916664 281.59375 61.49479Q281.07812 62.05729 281.07812 62.979164Q281.07812 63.791664 281.57812 64.30729Q282.07812 64.822914 282.79688 64.822914Q283.53125 64.822914 284.0 64.30729Q284.46875 63.791664 284.46875 62.885414ZM287.59375 68.666664L287.59375 67.46354L288.79688 67.46354L288.79688 68.666664L287.59375 68.666664ZM295.46875 62.18229L294.42188 62.260414Q294.28125 61.635414 294.03125 61.354164Q293.59375 60.90104 292.96875 60.90104Q292.46875 60.90104 292.07812 61.18229Q291.59375 61.55729 291.29688 62.260414Q291.01562 62.947914 291.0 64.229164Q291.375 63.65104 291.92188 63.36979Q292.48438 63.08854 293.09375 63.08854Q294.14062 63.08854 294.875 63.86979Q295.625 64.65104 295.625 65.86979Q295.625 66.68229 295.26562 67.385414Q294.92188 68.072914 294.3125 68.447914Q293.70312 68.80729 292.9375 68.80729Q291.60938 68.80729 290.78125 67.83854Q289.95312 66.86979 289.95312 64.65104Q289.95312 62.15104 290.875 61.02604Q291.67188 60.041664 293.03125 60.041664Q294.04688 60.041664 294.6875 60.61979Q295.34375 61.18229 295.46875 62.18229ZM291.17188 65.885414Q291.17188 66.43229 291.39062 66.93229Q291.625 67.416664 292.03125 67.68229Q292.45312 67.947914 292.92188 67.947914Q293.57812 67.947914 294.0625 67.416664Q294.54688 66.86979 294.54688 65.947914Q294.54688 65.05729 294.0625 64.541664Q293.59375 64.02604 292.875 64.02604Q292.15625 64.02604 291.65625 64.541664Q291.17188 65.05729 291.17188 65.885414ZM297.0 66.416664L298.10938 66.322914Q298.23438 67.135414 298.67188 67.541664Q299.125 67.947914 299.76562 67.947914Q300.51562 67.947914 301.04688 67.36979Q301.57812 66.791664 301.57812 65.854164Q301.57812 64.947914 301.0625 64.43229Q300.5625 63.90104 299.73438 63.90104Q299.23438 63.90104 298.8125 64.135414Q298.40625 64.36979 298.17188 64.729164L297.1875 64.604164L298.01562 60.197914L302.29688 60.197914L302.29688 61.197914L298.85938 61.197914L298.40625 63.510414Q299.17188 62.96354 300.01562 62.96354Q301.14062 62.96354 301.90625 63.74479Q302.6875 64.52604 302.6875 65.760414Q302.6875 66.916664 302.01562 67.77604Q301.1875 68.80729 299.76562 68.80729Q298.59375 68.80729 297.84375 68.15104Q297.10938 67.49479 297.0 66.416664ZM303.875 61.65104L304.14062 60.822914Q305.07812 61.15104 305.5 61.385414Q305.39062 60.322914 305.375 59.93229L306.23438 59.93229Q306.21875 60.510414 306.09375 61.385414Q306.70312 61.072914 307.48438 60.822914L307.75 61.65104Q307.0 61.90104 306.29688 61.979164Q306.64062 62.291664 307.29688 63.08854L306.59375 63.58854Q306.25 63.11979 305.79688 62.322914Q305.35938 63.15104 305.03125 63.58854L304.34375 63.08854Q305.01562 62.24479 305.3125 61.979164Q304.5625 61.83854 303.875 61.65104ZM308.59375 68.666664L310.85938 65.43229L308.76562 62.447914L310.07812 62.447914L311.03125 63.90104Q311.29688 64.322914 311.46875 64.604164Q311.71875 64.21354 311.9375 63.916664L312.98438 62.447914L314.25 62.447914L312.09375 65.36979L314.40625 68.666664L313.125 68.666664L311.84375 66.729164L311.5 66.21354L309.85938 68.666664L308.59375 68.666664ZM319.5 67.27604L319.5 64.916664L317.17188 64.916664L317.17188 63.93229L319.5 63.93229L319.5 61.604164L320.5 61.604164L320.5 63.93229L322.84375 63.93229L322.84375 64.916664L320.5 64.916664L320.5 67.27604L319.5 67.27604ZM326.875 66.08854L326.875 65.02604L330.125 65.02604L330.125 66.08854L326.875 66.08854ZM331.0 64.43229Q331.0 62.90104 331.3125 61.979164Q331.625 61.041664 332.23438 60.541664Q332.85938 60.041664 333.79688 60.041664Q334.48438 60.041664 335.0 60.322914Q335.53125 60.604164 335.875 61.135414Q336.21875 61.65104 336.40625 62.40104Q336.59375 63.15104 336.59375 64.43229Q336.59375 65.947914 336.28125 66.86979Q335.98438 67.791664 335.35938 68.30729Q334.75 68.80729 333.79688 68.80729Q332.5625 68.80729 331.84375 67.916664Q331.0 66.854164 331.0 64.43229ZM332.07812 64.43229Q332.07812 66.541664 332.57812 67.24479Q333.07812 67.947914 333.79688 67.947914Q334.53125 67.947914 335.01562 67.24479Q335.51562 66.541664 335.51562 64.43229Q335.51562 62.30729 335.01562 61.61979Q334.53125 60.916664 333.78125 60.916664Q333.0625 60.916664 332.625 61.52604Q332.07812 62.30729 332.07812 64.43229ZM338.59375 68.666664L338.59375 67.46354L339.79688 67.46354L339.79688 68.666664L338.59375 68.666664ZM344.96875 68.666664L343.92188 68.666664L343.92188 61.947914Q343.53125 62.30729 342.90625 62.68229Q342.29688 63.041664 341.8125 63.21354L341.8125 62.197914Q342.6875 61.77604 343.34375 61.197914Q344.01562 60.604164 344.29688 60.041664L344.96875 60.041664L344.96875 68.666664ZM348.0 66.40104L349.0625 66.260414Q349.23438 67.15104 349.67188 67.55729Q350.10938 67.947914 350.73438 67.947914Q351.48438 67.947914 352.0 67.43229Q352.51562 66.916664 352.51562 66.15104Q352.51562 65.43229 352.03125 64.96354Q351.5625 64.479164 350.82812 64.479164Q350.53125 64.479164 350.07812 64.604164L350.20312 63.666664Q350.3125 63.68229 350.375 63.68229Q351.04688 63.68229 351.57812 63.33854Q352.125 62.979164 352.125 62.24479Q352.125 61.666664 351.73438 61.291664Q351.34375 60.90104 350.71875 60.90104Q350.10938 60.90104 349.6875 61.291664Q349.28125 61.68229 349.17188 62.447914L348.10938 62.260414Q348.29688 61.21354 348.98438 60.635414Q349.67188 60.041664 350.6875 60.041664Q351.39062 60.041664 351.98438 60.354164Q352.57812 60.65104 352.89062 61.166664Q353.20312 61.68229 353.20312 62.27604Q353.20312 62.822914 352.90625 63.291664Q352.60938 63.74479 352.03125 64.010414Q352.78125 64.18229 353.20312 64.74479Q353.625 65.291664 353.625 66.135414Q353.625 67.260414 352.79688 68.041664Q351.98438 68.822914 350.73438 68.822914Q349.60938 68.822914 348.85938 68.15104Q348.10938 67.46354 348.0 66.40104ZM358.375 68.666664L358.375 66.604164L354.65625 66.604164L354.65625 65.635414L358.57812 60.072914L359.4375 60.072914L359.4375 65.635414L360.59375 65.635414L360.59375 66.604164L359.4375 66.604164L359.4375 68.666664L358.375 68.666664ZM358.375 65.635414L358.375 61.77604L355.6875 65.635414L358.375 65.635414ZM365.4375 68.666664L365.4375 60.072914L369.25 60.072914Q370.40625 60.072914 371.0 60.30729Q371.59375 60.541664 371.95312 61.135414Q372.3125 61.71354 372.3125 62.416664Q372.3125 63.33854 371.71875 63.96354Q371.125 64.58854 369.89062 64.760414Q370.34375 64.979164 370.57812 65.18229Q371.07812 65.635414 371.51562 66.322914L373.01562 68.666664L371.57812 68.666664L370.45312 66.885414Q369.95312 66.104164 369.625 65.697914Q369.3125 65.291664 369.04688 65.135414Q368.79688 64.96354 368.53125 64.885414Q368.34375 64.854164 367.90625 64.854164L366.57812 64.854164L366.57812 68.666664L365.4375 68.666664ZM366.57812 63.86979L369.03125 63.86979Q369.79688 63.86979 370.23438 63.71354Q370.6875 63.541664 370.90625 63.197914Q371.14062 62.83854 371.14062 62.416664Q371.14062 61.80729 370.6875 61.416664Q370.25 61.02604 369.29688 61.02604L366.57812 61.02604L366.57812 63.86979ZM373.64062 64.36979Q373.6875 64.041664 373.92188 63.697914Q374.29688 63.197914 375.14062 62.58854Q375.98438 61.979164 376.14062 61.791664Q376.35938 61.55729 376.35938 61.30729Q376.35938 61.02604 376.14062 60.854164Q375.9375 60.666664 375.54688 60.666664Q375.15625 60.666664 374.96875 60.80729Q374.78125 60.93229 374.65625 61.322914L373.76562 61.229164Q373.9375 60.58854 374.35938 60.27604Q374.78125 59.96354 375.5625 59.96354Q376.45312 59.96354 376.85938 60.322914Q377.28125 60.666664 377.28125 61.166664Q377.28125 61.65104 376.92188 62.08854Q376.67188 62.416664 375.73438 63.08854Q375.23438 63.447914 375.03125 63.666664L377.29688 63.666664L377.29688 64.36979L373.64062 64.36979ZM386.84375 63.61979L381.17188 63.61979L381.17188 62.635414L386.84375 62.635414L386.84375 63.61979ZM386.84375 66.229164L381.17188 66.229164L381.17188 65.24479L386.84375 65.24479L386.84375 66.229164ZM391.0 64.43229Q391.0 62.90104 391.3125 61.979164Q391.625 61.041664 392.23438 60.541664Q392.85938 60.041664 393.79688 60.041664Q394.48438 60.041664 395.0 60.322914Q395.53125 60.604164 395.875 61.135414Q396.21875 61.65104 396.40625 62.40104Q396.59375 63.15104 396.59375 64.43229Q396.59375 65.947914 396.28125 66.86979Q395.98438 67.791664 395.35938 68.30729Q394.75 68.80729 393.79688 68.80729Q392.5625 68.80729 391.84375 67.916664Q391.0 66.854164 391.0 64.43229ZM392.07812 64.43229Q392.07812 66.541664 392.57812 67.24479Q393.07812 67.947914 393.79688 67.947914Q394.53125 67.947914 395.01562 67.24479Q395.51562 66.541664 395.51562 64.43229Q395.51562 62.30729 395.01562 61.61979Q394.53125 60.916664 393.78125 60.916664Q393.0625 60.916664 392.625 61.52604Q392.07812 62.30729 392.07812 64.43229ZM398.59375 68.666664L398.59375 67.46354L399.79688 67.46354L399.79688 68.666664L398.59375 68.666664ZM401.15625 66.68229L402.17188 66.58854Q402.29688 67.30729 402.65625 67.635414Q403.03125 67.947914 403.59375 67.947914Q404.07812 67.947914 404.4375 67.729164Q404.8125 67.49479 405.04688 67.135414Q405.28125 66.760414 405.4375 66.135414Q405.59375 65.49479 405.59375 64.83854Q405.59375 64.760414 405.59375 64.61979Q405.28125 65.11979 404.73438 65.447914Q404.1875 65.760414 403.54688 65.760414Q402.46875 65.760414 401.73438 64.99479Q401.0 64.21354 401.0 62.947914Q401.0 61.635414 401.76562 60.83854Q402.54688 60.041664 403.70312 60.041664Q404.53125 60.041664 405.21875 60.49479Q405.92188 60.947914 406.28125 61.791664Q406.64062 62.61979 406.64062 64.197914Q406.64062 65.83854 406.28125 66.822914Q405.9375 67.791664 405.21875 68.30729Q404.51562 68.80729 403.57812 68.80729Q402.5625 68.80729 401.92188 68.260414Q401.28125 67.697914 401.15625 66.68229ZM405.46875 62.885414Q405.46875 61.979164 404.98438 61.447914Q404.51562 60.916664 403.82812 60.916664Q403.125 60.916664 402.59375 61.49479Q402.07812 62.05729 402.07812 62.979164Q402.07812 63.791664 402.57812 64.30729Q403.07812 64.822914 403.79688 64.822914Q404.53125 64.822914 405.0 64.30729Q405.46875 63.791664 405.46875 62.885414ZM413.46875 62.18229L412.42188 62.260414Q412.28125 61.635414 412.03125 61.354164Q411.59375 60.90104 410.96875 60.90104Q410.46875 60.90104 410.07812 61.18229Q409.59375 61.55729 409.29688 62.260414Q409.01562 62.947914 409.0 64.229164Q409.375 63.65104 409.92188 63.36979Q410.48438 63.08854 411.09375 63.08854Q412.14062 63.08854 412.875 63.86979Q413.625 64.65104 413.625 65.86979Q413.625 66.68229 413.26562 67.385414Q412.92188 68.072914 412.3125 68.447914Q411.70312 68.80729 410.9375 68.80729Q409.60938 68.80729 408.78125 67.83854Q407.95312 66.86979 407.95312 64.65104Q407.95312 62.15104 408.875 61.02604Q409.67188 60.041664 411.03125 60.041664Q412.04688 60.041664 412.6875 60.61979Q413.34375 61.18229 413.46875 62.18229ZM409.17188 65.885414Q409.17188 66.43229 409.39062 66.93229Q409.625 67.416664 410.03125 67.68229Q410.45312 67.947914 410.92188 67.947914Q411.57812 67.947914 412.0625 67.416664Q412.54688 66.86979 412.54688 65.947914Q412.54688 65.05729 412.0625 64.541664Q411.59375 64.02604 410.875 64.02604Q410.15625 64.02604 409.65625 64.541664Q409.17188 65.05729 409.17188 65.885414ZM415.0 66.40104L416.0625 66.260414Q416.23438 67.15104 416.67188 67.55729Q417.10938 67.947914 417.73438 67.947914Q418.48438 67.947914 419.0 67.43229Q419.51562 66.916664 419.51562 66.15104Q419.51562 65.43229 419.03125 64.96354Q418.5625 64.479164 417.82812 64.479164Q417.53125 64.479164 417.07812 64.604164L417.20312 63.666664Q417.3125 63.68229 417.375 63.68229Q418.04688 63.68229 418.57812 63.33854Q419.125 62.979164 419.125 62.24479Q419.125 61.666664 418.73438 61.291664Q418.34375 60.90104 417.71875 60.90104Q417.10938 60.90104 416.6875 61.291664Q416.28125 61.68229 416.17188 62.447914L415.10938 62.260414Q415.29688 61.21354 415.98438 60.635414Q416.67188 60.041664 417.6875 60.041664Q418.39062 60.041664 418.98438 60.354164Q419.57812 60.65104 419.89062 61.166664Q420.20312 61.68229 420.20312 62.27604Q420.20312 62.822914 419.90625 63.291664Q419.60938 63.74479 419.03125 64.010414Q419.78125 64.18229 420.20312 64.74479Q420.625 65.291664 420.625 66.135414Q420.625 67.260414 419.79688 68.041664Q418.98438 68.822914 417.73438 68.822914Q416.60938 68.822914 415.85938 68.15104Q415.10938 67.46354 415.0 66.40104Z" fill-rule="nonzero"/><path fill="#757575" d="M24.403126 39.2L20.45 28.825L22.309376 28.825L24.54375 35.04375Q24.903126 36.04375 25.2 37.121876Q25.434376 36.309376 25.85625 35.153126L28.153126 28.825L29.965626 28.825L26.04375 39.2L24.403126 39.2ZM31.528126 32.465626L29.73125 32.465626L33.16875 24.6375L34.590626 24.6375L38.059376 32.465626L36.29375 32.465626L33.871876 26.6375L31.528126 32.465626ZM47.2625 37.5125L47.2625 39.2L37.809376 39.2Q37.79375 38.559376 38.0125 37.98125Q38.371876 37.0125 39.16875 36.075Q39.965626 35.1375 41.465626 33.903126Q43.809376 31.996876 44.621876 30.8875Q45.45 29.7625 45.45 28.7625Q45.45 27.715626 44.7 26.996876Q43.95 26.278126 42.746876 26.278126Q41.48125 26.278126 40.715626 27.04375Q39.95 27.809376 39.95 29.153126L38.1375 28.965626Q38.325 26.95 39.528126 25.8875Q40.746876 24.825 42.79375 24.825Q44.840626 24.825 46.04375 25.965626Q47.246876 27.10625 47.246876 28.79375Q47.246876 29.653126 46.8875 30.496876Q46.54375 31.325 45.73125 32.246876Q44.91875 33.153126 43.028126 34.7625Q41.434376 36.090626 40.98125 36.559376Q40.54375 37.028126 40.246876 37.5125L47.2625 37.5125ZM58.403126 39.2L54.45 28.825L56.309376 28.825L58.54375 35.04375Q58.903126 36.04375 59.2 37.121876Q59.434376 36.309376 59.85625 35.153126L62.153126 28.825L63.965626 28.825L60.04375 39.2L58.403126 39.2ZM63.809376 36.10625L65.55937 35.825Q65.7 36.871876 66.37187 37.434376Q67.04375 37.98125 68.24687 37.98125Q69.45 37.98125 70.02812 37.496876Q70.62187 36.996876 70.62187 36.340626Q70.62187 35.746876 70.10625 35.403126Q69.74687 35.16875 68.30937 34.809376Q66.37187 34.309376 65.62187 33.965626Q64.8875 33.60625 64.49687 32.98125Q64.10625 32.340626 64.10625 31.575Q64.10625 30.8875 64.41875 30.29375Q64.74687 29.7 65.29375 29.309376Q65.7 29.0125 66.40312 28.809376Q67.12187 28.590626 67.93437 28.590626Q69.15312 28.590626 70.075 28.95Q70.99687 29.29375 71.43437 29.903126Q71.87187 30.496876 72.04375 31.496876L70.325 31.73125Q70.2 30.934376 69.6375 30.496876Q69.075 30.04375 68.05937 30.04375Q66.84062 30.04375 66.325 30.45Q65.80937 30.840626 65.80937 31.371876Q65.80937 31.715626 66.02812 31.996876Q66.23125 32.278126 66.7 32.465626Q66.96562 32.559376 68.24687 32.903126Q70.12187 33.403126 70.85625 33.73125Q71.59062 34.04375 72.0125 34.653126Q72.43437 35.246876 72.43437 36.153126Q72.43437 37.028126 71.91875 37.809376Q71.40312 38.590626 70.43437 39.0125Q69.46562 39.434376 68.24687 39.434376Q66.23125 39.434376 65.16875 38.590626Q64.10625 37.746876 63.809376 36.10625ZM75.0125 39.2L75.0125 37.2L77.0125 37.2L77.0125 39.2L75.0125 39.2ZM86.77812 39.2L86.77812 24.8875L93.12187 24.8875Q95.02812 24.8875 96.02812 25.278126Q97.02812 25.653126 97.62187 26.6375Q98.21562 27.60625 98.21562 28.79375Q98.21562 30.309376 97.23125 31.35625Q96.24687 32.403126 94.18437 32.684376Q94.93437 33.04375 95.325 33.403126Q96.15312 34.153126 96.90312 35.309376L99.3875 39.2L97.0125 39.2L95.10625 36.215626Q94.27812 34.934376 93.74687 34.246876Q93.21562 33.559376 92.77812 33.29375Q92.35625 33.0125 91.91875 32.903126Q91.59062 32.840626 90.87187 32.840626L88.66875 32.840626L88.66875 39.2L86.77812 39.2ZM88.66875 31.2L92.74687 31.2Q94.04375 31.2 94.7625 30.934376Q95.49687 30.66875 95.87187 30.075Q96.2625 29.48125 96.2625 28.79375Q96.2625 27.778126 95.52812 27.121876Q94.79375 26.465626 93.2 26.465626L88.66875 26.465626L88.66875 31.2ZM104.35625 37.621876L104.60625 39.184376Q103.87187 39.340626 103.27812 39.340626Q102.325 39.340626 101.79375 39.04375Q101.27812 38.73125 101.05937 38.246876Q100.84062 37.746876 100.84062 36.16875L100.84062 30.2L99.55937 30.2L99.55937 28.825L100.84062 28.825L100.84062 26.2625L102.59062 25.2L102.59062 28.825L104.35625 28.825L104.35625 30.2L102.59062 30.2L102.59062 36.2625Q102.59062 37.0125 102.68437 37.23125Q102.77812 37.434376 102.98125 37.575Q103.2 37.7 103.59062 37.7Q103.87187 37.7 104.35625 37.621876ZM113.29375 37.91875Q112.30937 38.746876 111.40312 39.090626Q110.49687 39.434376 109.46562 39.434376Q107.7625 39.434376 106.84062 38.60625Q105.91875 37.7625 105.91875 36.465626Q105.91875 35.7 106.2625 35.075Q106.62187 34.45 107.18437 34.075Q107.74687 33.684376 108.45 33.48125Q108.96562 33.35625 110.0125 33.215626Q112.1375 32.965626 113.1375 32.621876Q113.15312 32.2625 113.15312 32.153126Q113.15312 31.090626 112.65312 30.6375Q111.98125 30.04375 110.65312 30.04375Q109.40312 30.04375 108.80937 30.48125Q108.23125 30.91875 107.95 32.028126L106.23125 31.79375Q106.46562 30.684376 106.99687 30.0125Q107.52812 29.325 108.54375 28.965626Q109.55937 28.590626 110.90312 28.590626Q112.23125 28.590626 113.05937 28.903126Q113.8875 29.215626 114.27812 29.7Q114.66875 30.16875 114.825 30.8875Q114.91875 31.340626 114.91875 32.5125L114.91875 34.85625Q114.91875 37.309376 115.02812 37.965626Q115.1375 38.60625 115.48125 39.2L113.6375 39.2Q113.37187 38.653126 113.29375 37.91875ZM113.1375 33.996876Q112.18437 34.3875 110.2625 34.653126Q109.18437 34.809376 108.73125 35.0125Q108.29375 35.2 108.04375 35.575Q107.79375 35.95 107.79375 36.41875Q107.79375 37.121876 108.325 37.590626Q108.85625 38.059376 109.8875 38.059376Q110.90312 38.059376 111.68437 37.621876Q112.48125 37.16875 112.85625 36.403126Q113.1375 35.79375 113.1375 34.6375L113.1375 33.996876ZM117.5125 39.2L117.5125 28.825L119.10625 28.825L119.10625 30.309376Q120.24687 28.590626 122.40312 28.590626Q123.34062 28.590626 124.12187 28.934376Q124.91875 29.2625 125.30937 29.809376Q125.7 30.35625 125.85625 31.10625Q125.95 31.60625 125.95 32.825L125.95 39.2L124.18437 39.2L124.18437 32.8875Q124.18437 31.809376 123.98125 31.278126Q123.77812 30.746876 123.24687 30.434376Q122.73125 30.121876 122.02812 30.121876Q120.90312 30.121876 120.09062 30.840626Q119.27812 31.54375 119.27812 33.528126L119.27812 39.2L117.5125 39.2ZM130.87187 43.403126Q129.41875 41.575 128.41875 39.121876Q127.41875 36.653126 127.41875 34.0125Q127.41875 31.684376 128.16875 29.559376Q129.04375 27.090626 130.87187 24.6375L132.1375 24.6375Q130.95 26.66875 130.575 27.54375Q129.98125 28.8875 129.6375 30.35625Q129.21562 32.184376 129.21562 34.028126Q129.21562 38.715626 132.1375 43.403126L130.87187 43.403126ZM138.35625 37.621876L138.60625 39.184376Q137.87187 39.340626 137.27812 39.340626Q136.325 39.340626 135.79375 39.04375Q135.27812 38.73125 135.05937 38.246876Q134.84062 37.746876 134.84062 36.16875L134.84062 30.2L133.55937 30.2L133.55937 28.825L134.84062 28.825L134.84062 26.2625L136.59062 25.2L136.59062 28.825L138.35625 28.825L138.35625 30.2L136.59062 30.2L136.59062 36.2625Q136.59062 37.0125 136.68437 37.23125Q136.77812 37.434376 136.98125 37.575Q137.2 37.7 137.59062 37.7Q137.87187 37.7 138.35625 37.621876ZM140.5125 39.2L140.5125 24.8875L142.27812 24.8875L142.27812 30.0125Q143.5125 28.590626 145.3875 28.590626Q146.52812 28.590626 147.37187 29.04375Q148.23125 29.496876 148.59062 30.309376Q148.96562 31.10625 148.96562 32.621876L148.96562 39.2L147.21562 39.2L147.21562 32.621876Q147.21562 31.309376 146.6375 30.715626Q146.05937 30.10625 145.02812 30.10625Q144.24687 30.10625 143.54375 30.5125Q142.85625 30.91875 142.55937 31.621876Q142.27812 32.309376 142.27812 33.528126L142.27812 39.2L140.5125 39.2ZM157.62187 35.85625L159.43437 36.090626Q159.0125 37.66875 157.84062 38.559376Q156.68437 39.434376 154.87187 39.434376Q152.60625 39.434376 151.2625 38.04375Q149.93437 36.6375 149.93437 34.10625Q149.93437 31.48125 151.27812 30.04375Q152.62187 28.590626 154.77812 28.590626Q156.85625 28.590626 158.16875 30.0125Q159.49687 31.41875 159.49687 33.996876Q159.49687 34.153126 159.48125 34.465626L151.74687 34.465626Q151.84062 36.16875 152.71562 37.075Q153.59062 37.98125 154.8875 37.98125Q155.85625 37.98125 156.52812 37.48125Q157.21562 36.965626 157.62187 35.85625ZM151.84062 33.0125L157.6375 33.0125Q157.52812 31.715626 156.98125 31.059376Q156.1375 30.04375 154.79375 30.04375Q153.59062 30.04375 152.7625 30.85625Q151.93437 31.653126 151.84062 33.0125ZM165.35625 37.621876L165.60625 39.184376Q164.87187 39.340626 164.27812 39.340626Q163.325 39.340626 162.79375 39.04375Q162.27812 38.73125 162.05937 38.246876Q161.84062 37.746876 161.84062 36.16875L161.84062 30.2L160.55937 30.2L160.55937 28.825L161.84062 28.825L161.84062 26.2625L163.59062 25.2L163.59062 28.825L165.35625 28.825L165.35625 30.2L163.59062 30.2L163.59062 36.2625Q163.59062 37.0125 163.68437 37.23125Q163.77812 37.434376 163.98125 37.575Q164.2 37.7 164.59062 37.7Q164.87187 37.7 165.35625 37.621876ZM174.29375 37.91875Q173.30937 38.746876 172.40312 39.090626Q171.49687 39.434376 170.46562 39.434376Q168.7625 39.434376 167.84062 38.60625Q166.91875 37.7625 166.91875 36.465626Q166.91875 35.7 167.2625 35.075Q167.62187 34.45 168.18437 34.075Q168.74687 33.684376 169.45 33.48125Q169.96562 33.35625 171.0125 33.215626Q173.1375 32.965626 174.1375 32.621876Q174.15312 32.2625 174.15312 32.153126Q174.15312 31.090626 173.65312 30.6375Q172.98125 30.04375 171.65312 30.04375Q170.40312 30.04375 169.80937 30.48125Q169.23125 30.91875 168.95 32.028126L167.23125 31.79375Q167.46562 30.684376 167.99687 30.0125Q168.52812 29.325 169.54375 28.965626Q170.55937 28.590626 171.90312 28.590626Q173.23125 28.590626 174.05937 28.903126Q174.8875 29.215626 175.27812 29.7Q175.66875 30.16875 175.825 30.8875Q175.91875 31.340626 175.91875 32.5125L175.91875 34.85625Q175.91875 37.309376 176.02812 37.965626Q176.1375 38.60625 176.48125 39.2L174.6375 39.2Q174.37187 38.653126 174.29375 37.91875ZM174.1375 33.996876Q173.18437 34.3875 171.2625 34.653126Q170.18437 34.809376 169.73125 35.0125Q169.29375 35.2 169.04375 35.575Q168.79375 35.95 168.79375 36.41875Q168.79375 37.121876 169.325 37.590626Q169.85625 38.059376 170.8875 38.059376Q171.90312 38.059376 172.68437 37.621876Q173.48125 37.16875 173.85625 36.403126Q174.1375 35.79375 174.1375 34.6375L174.1375 33.996876ZM179.66875 43.403126L178.41875 43.403126Q181.325 38.715626 181.325 34.028126Q181.325 32.184376 180.91875 30.3875Q180.575 28.91875 179.98125 27.575Q179.60625 26.684376 178.41875 24.6375L179.66875 24.6375Q181.5125 27.090626 182.3875 29.559376Q183.1375 31.684376 183.1375 34.0125Q183.1375 36.653126 182.12187 39.121876Q181.12187 41.575 179.66875 43.403126Z" fill-rule="nonzero"/></svg>