<svg version="1.1" viewBox="0.0 0.0 600.0 371.0" fill="none" stroke="none" stroke-linecap="square" stroke-miterlimit="10" width="600" height="371" xmlns:xlink="http://www.w3.org/1999/xlink" xmlns="http://www.w3.org/2000/svg"><path fill="#ffffff" d="M0 0L600.0 0L600.0 371.0L0 371.0L0 0Z" fill-rule="nonzero"/><path stroke="#cccccc" stroke-width="1.0" stroke-linecap="butt" d="M45.5 61.5L45.5 332.5" fill-rule="nonzero"/><path stroke="#cccccc" stroke-width="1.0" stroke-linecap="butt" d="M152.5 61.5L152.5 332.5" fill-rule="nonzero"/><path stroke="#cccccc" stroke-width="1.0" stroke-linecap="butt" d="M259.5 61.5L259.5 332.5" fill-rule="nonzero"/><path stroke="#cccccc" stroke-width="1.0" stroke-linecap="butt" d="M367.5 61.5L367.5 332.5" fill-rule="nonzero"/><path stroke="#cccccc" stroke-width="1.0" stroke-linecap="butt" d="M474.5 61.5L474.5 332.5" fill-rule="nonzero"/><path stroke="#cccccc" stroke-width="1.0" stroke-linecap="butt" d="M581.5 61.5L581.5 332.5" fill-rule="nonzero"/><path stroke="#333333" stroke-width="1.0" stroke-linecap="butt" d="M45.5 332.5L581.5 332.5" fill-rule="nonzero"/><path stroke="#cccccc" stroke-width="1.0" stroke-linecap="butt" d="M45.5 264.5L581.5 264.5" fill-rule="nonzero"/><path stroke="#cccccc" stroke-width="1.0" stroke-linecap="butt" d="M45.5 197.5L581.5 197.5" fill-rule="nonzero"/><path stroke="#cccccc" stroke-width="1.0" stroke-linecap="butt" d="M45.5 129.5L581.5 129.5" fill-rule="nonzero"/><path stroke="#cccccc" stroke-width="1.0" stroke-linecap="butt" d="M45.5 61.5L581.5 61.5" fill-rule="nonzero"/><clipPath id="id_0"><path d="M45.55 61.916668L581.45 61.916668L581.45 332.45L45.55 332.45L45.55 61.916668Z" clip-rule="nonzero"/></clipPath><path stroke="#4285f4" stroke-width="2.0" stroke-linecap="butt" clip-path="url(#id_0)" d="M68.311554 72.344444L158.00818 71.88419L453.05496 71.6082" fill-rule="nonzero"/><path fill="#4285f4" clip-path="url(#id_0)" d="M72.811554 72.344444C72.811554 74.82973 70.79684 76.844444 68.311554 76.844444C65.82628 76.844444 63.811558 74.82973 63.811558 72.344444C63.811558 69.85916 65.82628 67.844444 68.311554 67.844444C70.79684 67.844444 72.811554 69.85916 72.811554 72.344444Z" fill-rule="nonzero"/><path fill="#4285f4" clip-path="url(#id_0)" d="M162.50818 71.88419C162.50818 74.36948 160.49347 76.38419 158.00818 76.38419C155.5229 76.38419 153.50818 74.36948 153.50818 71.88419C153.50818 69.39892 155.5229 67.38419 158.00818 67.38419C160.49347 67.38419 162.50818 69.39892 162.50818 71.88419Z" fill-rule="nonzero"/><path fill="#4285f4" clip-path="url(#id_0)" d="M457.55496 71.6082C457.55496 74.09348 455.54025 76.1082 453.05496 76.1082C450.56967 76.1082 448.55496 74.09348 448.55496 71.6082C448.55496 69.12292 450.56967 67.1082 453.05496 67.1082C455.54025 67.1082 457.55496 69.12292 457.55496 71.6082Z" fill-rule="nonzero"/><path fill="#000000" d="M23.05 332.21564Q23.05 330.6844 23.3625 329.7625Q23.675 328.825 24.284374 328.325Q24.909374 327.825 25.846874 327.825Q26.534374 327.825 27.05 328.10626Q27.58125 328.3875 27.925 328.91876Q28.26875 329.4344 28.45625 330.1844Q28.64375 330.9344 28.64375 332.21564Q28.64375 333.73126 28.33125 334.65314Q28.034374 335.575 27.409374 336.09064Q26.8 336.59064 25.846874 336.59064Q24.6125 336.59064 23.89375 335.7Q23.05 334.6375 23.05 332.21564ZM24.128124 332.21564Q24.128124 334.325 24.628124 335.02814Q25.128124 335.73126 25.846874 335.73126Q26.58125 335.73126 27.065624 335.02814Q27.565624 334.325 27.565624 332.21564Q27.565624 330.09064 27.065624 329.40314Q26.58125 328.7 25.83125 328.7Q25.1125 328.7 24.675 329.3094Q24.128124 330.09064 24.128124 332.21564ZM30.64375 336.45L30.64375 335.2469L31.846874 335.2469L31.846874 336.45L30.64375 336.45ZM33.05 332.21564Q33.05 330.6844 33.3625 329.7625Q33.675 328.825 34.284374 328.325Q34.909374 327.825 35.846874 327.825Q36.534374 327.825 37.05 328.10626Q37.58125 328.3875 37.925 328.91876Q38.26875 329.4344 38.45625 330.1844Q38.64375 330.9344 38.64375 332.21564Q38.64375 333.73126 38.33125 334.65314Q38.034374 335.575 37.409374 336.09064Q36.8 336.59064 35.846874 336.59064Q34.6125 336.59064 33.89375 335.7Q33.05 334.6375 33.05 332.21564ZM34.128124 332.21564Q34.128124 334.325 34.628124 335.02814Q35.128124 335.73126 35.846874 335.73126Q36.58125 335.73126 37.065624 335.02814Q37.565624 334.325 37.565624 332.21564Q37.565624 330.09064 37.065624 329.40314Q36.58125 328.7 35.83125 328.7Q35.1125 328.7 34.675 329.3094Q34.128124 330.09064 34.128124 332.21564Z" fill-rule="nonzero"/><path fill="#000000" d="M23.05 264.5823Q23.05 263.05106 23.3625 262.12918Q23.675 261.19168 24.284374 260.69168Q24.909374 260.19168 25.846874 260.19168Q26.534374 260.19168 27.05 260.47293Q27.58125 260.75418 27.925 261.28543Q28.26875 261.80106 28.45625 262.55106Q28.64375 263.30106 28.64375 264.5823Q28.64375 266.09793 28.33125 267.0198Q28.034374 267.94168 27.409374 268.4573Q26.8 268.9573 25.846874 268.9573Q24.6125 268.9573 23.89375 268.06668Q23.05 267.00418 23.05 264.5823ZM24.128124 264.5823Q24.128124 266.69168 24.628124 267.3948Q25.128124 268.09793 25.846874 268.09793Q26.58125 268.09793 27.065624 267.3948Q27.565624 266.69168 27.565624 264.5823Q27.565624 262.4573 27.065624 261.7698Q26.58125 261.06668 25.83125 261.06668Q25.1125 261.06668 24.675 261.67606Q24.128124 262.4573 24.128124 264.5823ZM30.64375 268.81668L30.64375 267.61356L31.846874 267.61356L31.846874 268.81668L30.64375 268.81668ZM37.01875 268.81668L35.971874 268.81668L35.971874 262.09793Q35.58125 262.4573 34.95625 262.8323Q34.346874 263.19168 33.8625 263.36356L33.8625 262.34793Q34.7375 261.92606 35.39375 261.34793Q36.065624 260.75418 36.346874 260.19168L37.01875 260.19168L37.01875 268.81668Z" fill-rule="nonzero"/><path fill="#000000" d="M23.05 196.94896Q23.05 195.41771 23.3625 194.49583Q23.675 193.55833 24.284374 193.05833Q24.909374 192.55833 25.846874 192.55833Q26.534374 192.55833 27.05 192.83958Q27.58125 193.12083 27.925 193.65208Q28.26875 194.16771 28.45625 194.91771Q28.64375 195.66771 28.64375 196.94896Q28.64375 198.46458 28.33125 199.38646Q28.034374 200.30833 27.409374 200.82396Q26.8 201.32396 25.846874 201.32396Q24.6125 201.32396 23.89375 200.43333Q23.05 199.37083 23.05 196.94896ZM24.128124 196.94896Q24.128124 199.05833 24.628124 199.76146Q25.128124 200.46458 25.846874 200.46458Q26.58125 200.46458 27.065624 199.76146Q27.565624 199.05833 27.565624 196.94896Q27.565624 194.82396 27.065624 194.13646Q26.58125 193.43333 25.83125 193.43333Q25.1125 193.43333 24.675 194.04271Q24.128124 194.82396 24.128124 196.94896ZM30.64375 201.18333L30.64375 199.98021L31.846874 199.98021L31.846874 201.18333L30.64375 201.18333ZM38.596874 200.16771L38.596874 201.18333L32.909374 201.18333Q32.909374 200.80833 33.034374 200.44896Q33.253124 199.87083 33.721874 199.30833Q34.20625 198.74583 35.1125 198.01146Q36.51875 196.85521 37.003124 196.18333Q37.503124 195.51146 37.503124 194.91771Q37.503124 194.29271 37.05 193.87083Q36.596874 193.43333 35.878124 193.43333Q35.1125 193.43333 34.659374 193.88646Q34.20625 194.33958 34.190624 195.15208L33.1125 195.04271Q33.221874 193.82396 33.940624 193.19896Q34.675 192.55833 35.909374 192.55833Q37.14375 192.55833 37.8625 193.24583Q38.58125 193.93333 38.58125 194.94896Q38.58125 195.46458 38.3625 195.96458Q38.159374 196.44896 37.659374 197.01146Q37.175 197.55833 36.05 198.51146Q35.096874 199.30833 34.815624 199.60521Q34.55 199.88646 34.378124 200.16771L38.596874 200.16771Z" fill-rule="nonzero"/><path fill="#000000" d="M23.05 129.31563Q23.05 127.78438 23.3625 126.8625Q23.675 125.925 24.284374 125.425Q24.909374 124.925 25.846874 124.925Q26.534374 124.925 27.05 125.20625Q27.58125 125.4875 27.925 126.01875Q28.26875 126.53438 28.45625 127.28438Q28.64375 128.03438 28.64375 129.31563Q28.64375 130.83125 28.33125 131.75313Q28.034374 132.675 27.409374 133.19063Q26.8 133.69063 25.846874 133.69063Q24.6125 133.69063 23.89375 132.8Q23.05 131.7375 23.05 129.31563ZM24.128124 129.31563Q24.128124 131.425 24.628124 132.12813Q25.128124 132.83125 25.846874 132.83125Q26.58125 132.83125 27.065624 132.12813Q27.565624 131.425 27.565624 129.31563Q27.565624 127.19063 27.065624 126.50313Q26.58125 125.8 25.83125 125.8Q25.1125 125.8 24.675 126.40938Q24.128124 127.19063 24.128124 129.31563ZM30.64375 133.55L30.64375 132.34688L31.846874 132.34688L31.846874 133.55L30.64375 133.55ZM33.05 131.28438L34.1125 131.14375Q34.284374 132.03438 34.721874 132.44063Q35.159374 132.83125 35.784374 132.83125Q36.534374 132.83125 37.05 132.31563Q37.565624 131.8 37.565624 131.03438Q37.565624 130.31563 37.08125 129.84688Q36.6125 129.3625 35.878124 129.3625Q35.58125 129.3625 35.128124 129.4875L35.253124 128.55Q35.3625 128.56563 35.425 128.56563Q36.096874 128.56563 36.628124 128.22188Q37.175 127.8625 37.175 127.12813Q37.175 126.55 36.784374 126.175Q36.39375 125.78438 35.76875 125.78438Q35.159374 125.78438 34.7375 126.175Q34.33125 126.56563 34.221874 127.33125L33.159374 127.14375Q33.346874 126.09688 34.034374 125.51875Q34.721874 124.925 35.7375 124.925Q36.440624 124.925 37.034374 125.2375Q37.628124 125.53438 37.940624 126.05Q38.253124 126.56563 38.253124 127.15938Q38.253124 127.70625 37.95625 128.175Q37.659374 128.62813 37.08125 128.89375Q37.83125 129.06563 38.253124 129.62813Q38.675 130.175 38.675 131.01875Q38.675 132.14375 37.846874 132.925Q37.034374 133.70625 35.784374 133.70625Q34.659374 133.70625 33.909374 133.03438Q33.159374 132.34688 33.05 131.28438Z" fill-rule="nonzero"/><path fill="#000000" d="M23.05 61.68229Q23.05 60.15104 23.3625 59.229164Q23.675 58.291664 24.284374 57.791664Q24.909374 57.291664 25.846874 57.291664Q26.534374 57.291664 27.05 57.572914Q27.58125 57.854164 27.925 58.385414Q28.26875 58.90104 28.45625 59.65104Q28.64375 60.40104 28.64375 61.68229Q28.64375 63.197914 28.33125 64.11979Q28.034374 65.041664 27.409374 65.55729Q26.8 66.05729 25.846874 66.05729Q24.6125 66.05729 23.89375 65.166664Q23.05 64.104164 23.05 61.68229ZM24.128124 61.68229Q24.128124 63.791664 24.628124 64.49479Q25.128124 65.197914 25.846874 65.197914Q26.58125 65.197914 27.065624 64.49479Q27.565624 63.791664 27.565624 61.68229Q27.565624 59.55729 27.065624 58.86979Q26.58125 58.166664 25.83125 58.166664Q25.1125 58.166664 24.675 58.77604Q24.128124 59.55729 24.128124 61.68229ZM30.64375 65.916664L30.64375 64.71354L31.846874 64.71354L31.846874 65.916664L30.64375 65.916664ZM36.425 65.916664L36.425 63.854164L32.70625 63.854164L32.70625 62.885414L36.628124 57.322914L37.4875 57.322914L37.4875 62.885414L38.64375 62.885414L38.64375 63.854164L37.4875 63.854164L37.4875 65.916664L36.425 65.916664ZM36.425 62.885414L36.425 59.02604L33.7375 62.885414L36.425 62.885414Z" fill-rule="nonzero"/><path fill="#000000" d="M31.925 346.8719L31.925 345.8094L35.175 345.8094L35.175 346.8719L31.925 346.8719ZM41.596874 348.4344L41.596874 349.45L35.909374 349.45Q35.909374 349.075 36.034374 348.71564Q36.253124 348.1375 36.721874 347.575Q37.20625 347.0125 38.1125 346.27814Q39.51875 345.1219 40.003124 344.45Q40.503124 343.77814 40.503124 343.1844Q40.503124 342.5594 40.05 342.1375Q39.596874 341.7 38.878124 341.7Q38.1125 341.7 37.659374 342.15314Q37.20625 342.60626 37.190624 343.41876L36.1125 343.3094Q36.221874 342.09064 36.940624 341.46564Q37.675 340.825 38.909374 340.825Q40.14375 340.825 40.8625 341.5125Q41.58125 342.2 41.58125 343.21564Q41.58125 343.73126 41.3625 344.23126Q41.159374 344.71564 40.659374 345.27814Q40.175 345.825 39.05 346.77814Q38.096874 347.575 37.815624 347.8719Q37.55 348.15314 37.378124 348.4344L41.596874 348.4344ZM43.64375 349.45L43.64375 348.2469L44.846874 348.2469L44.846874 349.45L43.64375 349.45ZM46.1125 341.98126L46.1125 340.96564L51.675 340.96564L51.675 341.79376Q50.8625 342.66876 50.05 344.1219Q49.253124 345.5594 48.815624 347.09064Q48.4875 348.16876 48.409374 349.45L47.315624 349.45Q47.33125 348.4344 47.70625 346.9969Q48.096874 345.5594 48.8 344.23126Q49.51875 342.90314 50.33125 341.98126L46.1125 341.98126ZM53.05 347.2L54.159374 347.10626Q54.284374 347.91876 54.721874 348.325Q55.175 348.73126 55.815624 348.73126Q56.565624 348.73126 57.096874 348.15314Q57.628124 347.575 57.628124 346.6375Q57.628124 345.73126 57.1125 345.21564Q56.6125 344.6844 55.784374 344.6844Q55.284374 344.6844 54.8625 344.91876Q54.45625 345.15314 54.221874 345.5125L53.2375 345.3875L54.065624 340.98126L58.346874 340.98126L58.346874 341.98126L54.909374 341.98126L54.45625 344.29376Q55.221874 343.7469 56.065624 343.7469Q57.190624 343.7469 57.95625 344.52814Q58.7375 345.3094 58.7375 346.54376Q58.7375 347.7 58.065624 348.5594Q57.2375 349.59064 55.815624 349.59064Q54.64375 349.59064 53.89375 348.9344Q53.159374 348.27814 53.05 347.2Z" fill-rule="nonzero"/><path fill="#000000" d="M139.105 346.8719L139.105 345.8094L142.355 345.8094L142.355 346.8719L139.105 346.8719ZM148.77687 348.4344L148.77687 349.45L143.08937 349.45Q143.08937 349.075 143.21437 348.71564Q143.43312 348.1375 143.90187 347.575Q144.38625 347.0125 145.2925 346.27814Q146.69875 345.1219 147.18312 344.45Q147.68312 343.77814 147.68312 343.1844Q147.68312 342.5594 147.23 342.1375Q146.77687 341.7 146.05812 341.7Q145.2925 341.7 144.83937 342.15314Q144.38625 342.60626 144.37062 343.41876L143.2925 343.3094Q143.40187 342.09064 144.12062 341.46564Q144.855 340.825 146.08937 340.825Q147.32375 340.825 148.0425 341.5125Q148.76125 342.2 148.76125 343.21564Q148.76125 343.73126 148.5425 344.23126Q148.33937 344.71564 147.83937 345.27814Q147.355 345.825 146.23 346.77814Q145.27687 347.575 144.99562 347.8719Q144.73 348.15314 144.55812 348.4344L148.77687 348.4344ZM150.82375 349.45L150.82375 348.2469L152.02687 348.2469L152.02687 349.45L150.82375 349.45ZM158.69875 342.96564L157.65187 343.04376Q157.51125 342.41876 157.26125 342.1375Q156.82375 341.6844 156.19875 341.6844Q155.69875 341.6844 155.30812 341.96564Q154.82375 342.34064 154.52687 343.04376Q154.24562 343.73126 154.23 345.0125Q154.605 344.4344 155.15187 344.15314Q155.71437 343.8719 156.32375 343.8719Q157.37062 343.8719 158.105 344.65314Q158.855 345.4344 158.855 346.65314Q158.855 347.46564 158.49562 348.16876Q158.15187 348.85626 157.5425 349.23126Q156.93312 349.59064 156.1675 349.59064Q154.83937 349.59064 154.01125 348.6219Q153.18312 347.65314 153.18312 345.4344Q153.18312 342.9344 154.105 341.8094Q154.90187 340.825 156.26125 340.825Q157.27687 340.825 157.9175 341.40314Q158.57375 341.96564 158.69875 342.96564ZM154.40187 346.66876Q154.40187 347.21564 154.62062 347.71564Q154.855 348.2 155.26125 348.46564Q155.68312 348.73126 156.15187 348.73126Q156.80812 348.73126 157.2925 348.2Q157.77687 347.65314 157.77687 346.73126Q157.77687 345.84064 157.2925 345.325Q156.82375 344.8094 156.105 344.8094Q155.38625 344.8094 154.88625 345.325Q154.40187 345.84064 154.40187 346.66876ZM160.23 347.2L161.33937 347.10626Q161.46437 347.91876 161.90187 348.325Q162.355 348.73126 162.99562 348.73126Q163.74562 348.73126 164.27687 348.15314Q164.80812 347.575 164.80812 346.6375Q164.80812 345.73126 164.2925 345.21564Q163.7925 344.6844 162.96437 344.6844Q162.46437 344.6844 162.0425 344.91876Q161.63625 345.15314 161.40187 345.5125L160.4175 345.3875L161.24562 340.98126L165.52687 340.98126L165.52687 341.98126L162.08937 341.98126L161.63625 344.29376Q162.40187 343.7469 163.24562 343.7469Q164.37062 343.7469 165.13625 344.52814Q165.9175 345.3094 165.9175 346.54376Q165.9175 347.7 165.24562 348.5594Q164.4175 349.59064 162.99562 349.59064Q161.82375 349.59064 161.07375 348.9344Q160.33937 348.27814 160.23 347.2Z" fill-rule="nonzero"/><path fill="#000000" d="M246.285 346.8719L246.285 345.8094L249.535 345.8094L249.535 346.8719L246.285 346.8719ZM255.95688 348.4344L255.95688 349.45L250.26938 349.45Q250.26938 349.075 250.39438 348.71564Q250.61313 348.1375 251.08188 347.575Q251.56625 347.0125 252.4725 346.27814Q253.87875 345.1219 254.36313 344.45Q254.86313 343.77814 254.86313 343.1844Q254.86313 342.5594 254.41 342.1375Q253.95688 341.7 253.23813 341.7Q252.4725 341.7 252.01938 342.15314Q251.56625 342.60626 251.55063 343.41876L250.4725 343.3094Q250.58188 342.09064 251.30063 341.46564Q252.035 340.825 253.26938 340.825Q254.50375 340.825 255.2225 341.5125Q255.94125 342.2 255.94125 343.21564Q255.94125 343.73126 255.7225 344.23126Q255.51938 344.71564 255.01938 345.27814Q254.535 345.825 253.41 346.77814Q252.45688 347.575 252.17563 347.8719Q251.91 348.15314 251.73813 348.4344L255.95688 348.4344ZM258.00375 349.45L258.00375 348.2469L259.20688 348.2469L259.20688 349.45L258.00375 349.45ZM260.41 347.2L261.51938 347.10626Q261.64438 347.91876 262.08188 348.325Q262.535 348.73126 263.17563 348.73126Q263.92563 348.73126 264.45688 348.15314Q264.98813 347.575 264.98813 346.6375Q264.98813 345.73126 264.4725 345.21564Q263.9725 344.6844 263.14438 344.6844Q262.64438 344.6844 262.2225 344.91876Q261.81625 345.15314 261.58188 345.5125L260.5975 345.3875L261.42563 340.98126L265.70688 340.98126L265.70688 341.98126L262.26938 341.98126L261.81625 344.29376Q262.58188 343.7469 263.42563 343.7469Q264.55063 343.7469 265.31625 344.52814Q266.0975 345.3094 266.0975 346.54376Q266.0975 347.7 265.42563 348.5594Q264.5975 349.59064 263.17563 349.59064Q262.00375 349.59064 261.25375 348.9344Q260.51938 348.27814 260.41 347.2ZM267.41 347.2L268.51938 347.10626Q268.64438 347.91876 269.08188 348.325Q269.535 348.73126 270.17563 348.73126Q270.92563 348.73126 271.45688 348.15314Q271.98813 347.575 271.98813 346.6375Q271.98813 345.73126 271.4725 345.21564Q270.9725 344.6844 270.14438 344.6844Q269.64438 344.6844 269.2225 344.91876Q268.81625 345.15314 268.58188 345.5125L267.5975 345.3875L268.42563 340.98126L272.70688 340.98126L272.70688 341.98126L269.26938 341.98126L268.81625 344.29376Q269.58188 343.7469 270.42563 343.7469Q271.55063 343.7469 272.31625 344.52814Q273.0975 345.3094 273.0975 346.54376Q273.0975 347.7 272.42563 348.5594Q271.5975 349.59064 270.17563 349.59064Q269.00375 349.59064 268.25375 348.9344Q267.51938 348.27814 267.41 347.2Z" fill-rule="nonzero"/><path fill="#000000" d="M353.465 346.8719L353.465 345.8094L356.715 345.8094L356.715 346.8719L353.465 346.8719ZM363.13687 348.4344L363.13687 349.45L357.44937 349.45Q357.44937 349.075 357.57437 348.71564Q357.79312 348.1375 358.26187 347.575Q358.74625 347.0125 359.6525 346.27814Q361.05875 345.1219 361.54312 344.45Q362.04312 343.77814 362.04312 343.1844Q362.04312 342.5594 361.59 342.1375Q361.13687 341.7 360.41812 341.7Q359.6525 341.7 359.19937 342.15314Q358.74625 342.60626 358.73062 343.41876L357.6525 343.3094Q357.76187 342.09064 358.48062 341.46564Q359.215 340.825 360.44937 340.825Q361.68375 340.825 362.4025 341.5125Q363.12125 342.2 363.12125 343.21564Q363.12125 343.73126 362.9025 344.23126Q362.69937 344.71564 362.19937 345.27814Q361.715 345.825 360.59 346.77814Q359.63687 347.575 359.35562 347.8719Q359.09 348.15314 358.91812 348.4344L363.13687 348.4344ZM365.18375 349.45L365.18375 348.2469L366.38687 348.2469L366.38687 349.45L365.18375 349.45ZM370.965 349.45L370.965 347.3875L367.24625 347.3875L367.24625 346.41876L371.16812 340.85626L372.0275 340.85626L372.0275 346.41876L373.18375 346.41876L373.18375 347.3875L372.0275 347.3875L372.0275 349.45L370.965 349.45ZM370.965 346.41876L370.965 342.5594L368.2775 346.41876L370.965 346.41876ZM374.59 347.2L375.69937 347.10626Q375.82437 347.91876 376.26187 348.325Q376.715 348.73126 377.35562 348.73126Q378.10562 348.73126 378.63687 348.15314Q379.16812 347.575 379.16812 346.6375Q379.16812 345.73126 378.6525 345.21564Q378.1525 344.6844 377.32437 344.6844Q376.82437 344.6844 376.4025 344.91876Q375.99625 345.15314 375.76187 345.5125L374.7775 345.3875L375.60562 340.98126L379.88687 340.98126L379.88687 341.98126L376.44937 341.98126L375.99625 344.29376Q376.76187 343.7469 377.60562 343.7469Q378.73062 343.7469 379.49625 344.52814Q380.2775 345.3094 380.2775 346.54376Q380.2775 347.7 379.60562 348.5594Q378.7775 349.59064 377.35562 349.59064Q376.18375 349.59064 375.43375 348.9344Q374.69937 348.27814 374.59 347.2Z" fill-rule="nonzero"/><path fill="#000000" d="M460.645 346.8719L460.645 345.8094L463.895 345.8094L463.895 346.8719L460.645 346.8719ZM470.31686 348.4344L470.31686 349.45L464.62936 349.45Q464.62936 349.075 464.75436 348.71564Q464.9731 348.1375 465.44186 347.575Q465.92624 347.0125 466.8325 346.27814Q468.23874 345.1219 468.7231 344.45Q469.2231 343.77814 469.2231 343.1844Q469.2231 342.5594 468.77 342.1375Q468.31686 341.7 467.5981 341.7Q466.8325 341.7 466.37936 342.15314Q465.92624 342.60626 465.9106 343.41876L464.8325 343.3094Q464.94186 342.09064 465.6606 341.46564Q466.395 340.825 467.62936 340.825Q468.86374 340.825 469.5825 341.5125Q470.30124 342.2 470.30124 343.21564Q470.30124 343.73126 470.0825 344.23126Q469.87936 344.71564 469.37936 345.27814Q468.895 345.825 467.77 346.77814Q466.81686 347.575 466.5356 347.8719Q466.27 348.15314 466.0981 348.4344L470.31686 348.4344ZM472.36374 349.45L472.36374 348.2469L473.56686 348.2469L473.56686 349.45L472.36374 349.45ZM474.77 347.1844L475.8325 347.04376Q476.00436 347.9344 476.44186 348.34064Q476.87936 348.73126 477.50436 348.73126Q478.25436 348.73126 478.77 348.21564Q479.2856 347.7 479.2856 346.9344Q479.2856 346.21564 478.80124 345.7469Q478.3325 345.2625 477.5981 345.2625Q477.30124 345.2625 476.8481 345.3875L476.9731 344.45Q477.0825 344.46564 477.145 344.46564Q477.81686 344.46564 478.3481 344.1219Q478.895 343.7625 478.895 343.02814Q478.895 342.45 478.50436 342.075Q478.11374 341.6844 477.48874 341.6844Q476.87936 341.6844 476.4575 342.075Q476.05124 342.46564 475.94186 343.23126L474.87936 343.04376Q475.06686 341.9969 475.75436 341.41876Q476.44186 340.825 477.4575 340.825Q478.1606 340.825 478.75436 341.1375Q479.3481 341.4344 479.6606 341.95Q479.9731 342.46564 479.9731 343.0594Q479.9731 343.60626 479.67624 344.075Q479.37936 344.52814 478.80124 344.79376Q479.55124 344.96564 479.9731 345.52814Q480.395 346.075 480.395 346.91876Q480.395 348.04376 479.56686 348.825Q478.75436 349.60626 477.50436 349.60626Q476.37936 349.60626 475.62936 348.9344Q474.87936 348.2469 474.77 347.1844ZM481.77 347.2L482.87936 347.10626Q483.00436 347.91876 483.44186 348.325Q483.895 348.73126 484.5356 348.73126Q485.2856 348.73126 485.81686 348.15314Q486.3481 347.575 486.3481 346.6375Q486.3481 345.73126 485.8325 345.21564Q485.3325 344.6844 484.50436 344.6844Q484.00436 344.6844 483.5825 344.91876Q483.17624 345.15314 482.94186 345.5125L481.9575 345.3875L482.7856 340.98126L487.06686 340.98126L487.06686 341.98126L483.62936 341.98126L483.17624 344.29376Q483.94186 343.7469 484.7856 343.7469Q485.9106 343.7469 486.67624 344.52814Q487.4575 345.3094 487.4575 346.54376Q487.4575 347.7 486.7856 348.5594Q485.9575 349.59064 484.5356 349.59064Q483.36374 349.59064 482.61374 348.9344Q481.87936 348.27814 481.77 347.2Z" fill-rule="nonzero"/><path fill="#000000" d="M567.825 346.8719L567.825 345.8094L571.075 345.8094L571.075 346.8719L567.825 346.8719ZM577.4969 348.4344L577.4969 349.45L571.8094 349.45Q571.8094 349.075 571.9344 348.71564Q572.15314 348.1375 572.6219 347.575Q573.10626 347.0125 574.0125 346.27814Q575.41876 345.1219 575.90314 344.45Q576.40314 343.77814 576.40314 343.1844Q576.40314 342.5594 575.95 342.1375Q575.4969 341.7 574.77814 341.7Q574.0125 341.7 573.5594 342.15314Q573.10626 342.60626 573.09064 343.41876L572.0125 343.3094Q572.1219 342.09064 572.84064 341.46564Q573.575 340.825 574.8094 340.825Q576.04376 340.825 576.7625 341.5125Q577.48126 342.2 577.48126 343.21564Q577.48126 343.73126 577.2625 344.23126Q577.0594 344.71564 576.5594 345.27814Q576.075 345.825 574.95 346.77814Q573.9969 347.575 573.71564 347.8719Q573.45 348.15314 573.27814 348.4344L577.4969 348.4344ZM579.54376 349.45L579.54376 348.2469L580.7469 348.2469L580.7469 349.45L579.54376 349.45ZM587.4969 348.4344L587.4969 349.45L581.8094 349.45Q581.8094 349.075 581.9344 348.71564Q582.15314 348.1375 582.6219 347.575Q583.10626 347.0125 584.0125 346.27814Q585.41876 345.1219 585.90314 344.45Q586.40314 343.77814 586.40314 343.1844Q586.40314 342.5594 585.95 342.1375Q585.4969 341.7 584.77814 341.7Q584.0125 341.7 583.5594 342.15314Q583.10626 342.60626 583.09064 343.41876L582.0125 343.3094Q582.1219 342.09064 582.84064 341.46564Q583.575 340.825 584.8094 340.825Q586.04376 340.825 586.7625 341.5125Q587.48126 342.2 587.48126 343.21564Q587.48126 343.73126 587.2625 344.23126Q587.0594 344.71564 586.5594 345.27814Q586.075 345.825 584.95 346.77814Q583.9969 347.575 583.71564 347.8719Q583.45 348.15314 583.27814 348.4344L587.4969 348.4344ZM588.95 347.2L590.0594 347.10626Q590.1844 347.91876 590.6219 348.325Q591.075 348.73126 591.71564 348.73126Q592.46564 348.73126 592.9969 348.15314Q593.52814 347.575 593.52814 346.6375Q593.52814 345.73126 593.0125 345.21564Q592.5125 344.6844 591.6844 344.6844Q591.1844 344.6844 590.7625 344.91876Q590.35626 345.15314 590.1219 345.5125L589.1375 345.3875L589.96564 340.98126L594.2469 340.98126L594.2469 341.98126L590.8094 341.98126L590.35626 344.29376Q591.1219 343.7469 591.96564 343.7469Q593.09064 343.7469 593.85626 344.52814Q594.6375 345.3094 594.6375 346.54376Q594.6375 347.7 593.96564 348.5594Q593.1375 349.59064 591.71564 349.59064Q590.54376 349.59064 589.79376 348.9344Q589.0594 348.27814 588.95 347.2Z" fill-rule="nonzero"/><path fill="#757575" d="M19.83125 37.55L19.83125 23.2375L21.58125 23.2375L21.58125 37.55L19.83125 37.55ZM23.8625 37.55L23.8625 27.175L25.45625 27.175L25.45625 28.659374Q26.596874 26.940624 28.753124 26.940624Q29.690624 26.940624 30.471874 27.284374Q31.26875 27.6125 31.659374 28.159374Q32.05 28.70625 32.20625 29.45625Q32.3 29.95625 32.3 31.175L32.3 37.55L30.534374 37.55L30.534374 31.2375Q30.534374 30.159374 30.33125 29.628124Q30.128124 29.096874 29.596874 28.784374Q29.08125 28.471874 28.378124 28.471874Q27.253124 28.471874 26.440624 29.190624Q25.628124 29.89375 25.628124 31.878124L25.628124 37.55L23.8625 37.55ZM43.7375 37.55L43.7375 24.925L39.01875 24.925L39.01875 23.2375L50.3625 23.2375L50.3625 24.925L45.628124 24.925L45.628124 37.55L43.7375 37.55ZM60.753124 37.55L56.8 27.175L58.659374 27.175L60.89375 33.39375Q61.253124 34.39375 61.55 35.471874Q61.784374 34.659374 62.20625 33.503124L64.50313 27.175L66.31563 27.175L62.39375 37.55L60.753124 37.55ZM66.15938 34.45625L67.90938 34.175Q68.05 35.221874 68.72188 35.784374Q69.39375 36.33125 70.59688 36.33125Q71.8 36.33125 72.37813 35.846874Q72.97188 35.346874 72.97188 34.690624Q72.97188 34.096874 72.45625 33.753124Q72.09688 33.51875 70.65938 33.159374Q68.72188 32.659374 67.97188 32.315624Q67.2375 31.95625 66.84688 31.33125Q66.45625 30.690624 66.45625 29.925Q66.45625 29.2375 66.76875 28.64375Q67.09688 28.05 67.64375 27.659374Q68.05 27.3625 68.75313 27.159374Q69.47188 26.940624 70.28438 26.940624Q71.50313 26.940624 72.425 27.3Q73.34688 27.64375 73.78438 28.253124Q74.22188 28.846874 74.39375 29.846874L72.675 30.08125Q72.55 29.284374 71.9875 28.846874Q71.425 28.39375 70.40938 28.39375Q69.19063 28.39375 68.675 28.8Q68.15938 29.190624 68.15938 29.721874Q68.15938 30.065624 68.37813 30.346874Q68.58125 30.628124 69.05 30.815624Q69.31563 30.909374 70.59688 31.253124Q72.47188 31.753124 73.20625 32.08125Q73.94063 32.39375 74.3625 33.003124Q74.78438 33.596874 74.78438 34.503124Q74.78438 35.378124 74.26875 36.159374Q73.75313 36.940624 72.78438 37.3625Q71.81563 37.784374 70.59688 37.784374Q68.58125 37.784374 67.51875 36.940624Q66.45625 36.096874 66.15938 34.45625ZM82.83125 37.55L82.83125 23.2375L84.58125 23.2375L84.58125 37.55L82.83125 37.55ZM86.8625 37.55L86.8625 27.175L88.45625 27.175L88.45625 28.659374Q89.59688 26.940624 91.75313 26.940624Q92.69063 26.940624 93.47188 27.284374Q94.26875 27.6125 94.65938 28.159374Q95.05 28.70625 95.20625 29.45625Q95.3 29.95625 95.3 31.175L95.3 37.55L93.53438 37.55L93.53438 31.2375Q93.53438 30.159374 93.33125 29.628124Q93.12813 29.096874 92.59688 28.784374Q92.08125 28.471874 91.37813 28.471874Q90.25313 28.471874 89.44063 29.190624Q88.62813 29.89375 88.62813 31.878124L88.62813 37.55L86.8625 37.55ZM102.8625 37.55L102.8625 27.175L104.44063 27.175L104.44063 28.628124Q104.925 27.878124 105.7375 27.409374Q106.55 26.940624 107.58125 26.940624Q108.7375 26.940624 109.47188 27.425Q110.20625 27.89375 110.51875 28.753124Q111.75313 26.940624 113.72188 26.940624Q115.26875 26.940624 116.09688 27.8Q116.925 28.659374 116.925 30.425L116.925 37.55L115.175 37.55L115.175 31.01875Q115.175 29.95625 115.00313 29.503124Q114.83125 29.034374 114.37813 28.753124Q113.94063 28.471874 113.33125 28.471874Q112.2375 28.471874 111.50313 29.20625Q110.78438 29.925 110.78438 31.51875L110.78438 37.55L109.03438 37.55L109.03438 30.815624Q109.03438 29.64375 108.59688 29.065624Q108.175 28.471874 107.19063 28.471874Q106.45625 28.471874 105.81563 28.8625Q105.19063 29.253124 104.90938 30.003124Q104.62813 30.753124 104.62813 32.175L104.62813 37.55L102.8625 37.55Z" fill-rule="nonzero"/></svg>